<svg xmlns="http://www.w3.org/2000/svg" viewBox="0 0 1480 820" width="1480" height="820" font-family="Inter,-apple-system,Segoe UI,Helvetica,Arial,sans-serif"><rect width="100%" height="100%" fill="#fbfcfe"/><defs><filter id="sh" x="-25%" y="-25%" width="150%" height="150%"><feDropShadow dx="0" dy="1.4" stdDeviation="2.4" flood-color="#0b1f3a" flood-opacity="0.14"/></filter><marker id="mGray" viewBox="0 0 10 10" refX="9" refY="5" markerWidth="9" markerHeight="9" markerUnits="userSpaceOnUse" orient="auto-start-reverse"><path d="M0.5,0.8 L9.4,5 L0.5,9.2 L3,5 Z" fill="#868e96"/></marker><marker id="mMaroon" viewBox="0 0 10 10" refX="9" refY="5" markerWidth="9" markerHeight="9" markerUnits="userSpaceOnUse" orient="auto-start-reverse"><path d="M0.5,0.8 L9.4,5 L0.5,9.2 L3,5 Z" fill="#7d1c1c"/></marker><marker id="mRed" viewBox="0 0 10 10" refX="9" refY="5" markerWidth="9" markerHeight="9" markerUnits="userSpaceOnUse" orient="auto-start-reverse"><path d="M0.5,0.8 L9.4,5 L0.5,9.2 L3,5 Z" fill="#e03131"/></marker><marker id="mGreen" viewBox="0 0 10 10" refX="9" refY="5" markerWidth="9" markerHeight="9" markerUnits="userSpaceOnUse" orient="auto-start-reverse"><path d="M0.5,0.8 L9.4,5 L0.5,9.2 L3,5 Z" fill="#2f9e44"/></marker><marker id="mIndigo" viewBox="0 0 10 10" refX="9" refY="5" markerWidth="9" markerHeight="9" markerUnits="userSpaceOnUse" orient="auto-start-reverse"><path d="M0.5,0.8 L9.4,5 L0.5,9.2 L3,5 Z" fill="#4263eb"/></marker><marker id="mViolet" viewBox="0 0 10 10" refX="9" refY="5" markerWidth="9" markerHeight="9" markerUnits="userSpaceOnUse" orient="auto-start-reverse"><path d="M0.5,0.8 L9.4,5 L0.5,9.2 L3,5 Z" fill="#7048e8"/></marker><marker id="mAmber" viewBox="0 0 10 10" refX="9" refY="5" markerWidth="9" markerHeight="9" markerUnits="userSpaceOnUse" orient="auto-start-reverse"><path d="M0.5,0.8 L9.4,5 L0.5,9.2 L3,5 Z" fill="#f08c00"/></marker><marker id="mTeal" viewBox="0 0 10 10" refX="9" refY="5" markerWidth="9" markerHeight="9" markerUnits="userSpaceOnUse" orient="auto-start-reverse"><path d="M0.5,0.8 L9.4,5 L0.5,9.2 L3,5 Z" fill="#0ca678"/></marker></defs><rect x="36" y="112" width="1416" height="526" rx="14" fill="#e3faf3" fill-opacity="0.03" stroke="#0ca678" stroke-width="1.4"/><path d="M286,62 C376.18205018738485,62 449.81794981261515,138.4 540,138.4" fill="none" stroke="#7d1c1c" stroke-width="1.8" stroke-linecap="round" marker-end="url(#mMaroon)"/><path d="M1291,86 C1291,180.94487672328614 1121.6,213.05512327671386 1121.6,308" fill="none" stroke="#2f9e44" stroke-width="1.8" stroke-linecap="round" marker-end="url(#mGreen)"/><path d="M620,172 C620,270.8554662929673 330.6,101.14453370703266 330.6,200" fill="none" stroke="#868e96" stroke-width="1.8" stroke-linecap="round" marker-end="url(#mGray)"/><path d="M880,172 C880,264.08940012835353 1149.4,107.91059987164644 1149.4,200" fill="none" stroke="#868e96" stroke-width="1.8" stroke-linecap="round" marker-end="url(#mGray)"/><path d="M172,364 C172,400 164,378 164,414" fill="none" stroke="#4263eb" stroke-width="1.8" stroke-linecap="round" marker-end="url(#mIndigo)"/><path d="M404,364 C404,400 396,378 396,414" fill="none" stroke="#7048e8" stroke-width="1.8" stroke-linecap="round" marker-end="url(#mViolet)"/><path d="M636,364 C636,400 628,378 628,414" fill="none" stroke="#7048e8" stroke-width="1.8" stroke-linecap="round" marker-end="url(#mViolet)"/><path d="M868,364 C868,400 900,378 900,414" fill="none" stroke="#4263eb" stroke-width="1.8" stroke-linecap="round" marker-end="url(#mIndigo)"/><path d="M164,480 C164,552.76 164,621.24 164,694" fill="none" stroke="#4263eb" stroke-width="1.8" stroke-linecap="round" marker-end="url(#mIndigo)"/><path d="M396,480 C396,552.76 396,621.24 396,694" fill="none" stroke="#7048e8" stroke-width="1.8" stroke-linecap="round" marker-end="url(#mViolet)"/><path d="M628,480 C628,552.76 628,621.24 628,694" fill="none" stroke="#7048e8" stroke-width="1.8" stroke-linecap="round" marker-end="url(#mViolet)"/><path d="M860,480 C860,552.76 860,621.24 860,694" fill="none" stroke="#f08c00" stroke-width="1.8" stroke-linecap="round" marker-end="url(#mAmber)"/><path d="M1316,480 C1316,552.76 1316,621.24 1316,694" fill="none" stroke="#7048e8" stroke-width="1.8" stroke-linecap="round" stroke-dasharray="6 5" marker-end="url(#mViolet)"/><path d="M1158,266 L1110,288 L644,288 L657.6,308" fill="none" stroke="#4263eb" stroke-width="1.8" stroke-linecap="round" marker-end="url(#mIndigo)"/><path d="M679.2,364 C679.2,414.80086991381154 820,363.19913008618846 820,414" fill="none" stroke="#4263eb" stroke-width="1.8" stroke-linecap="round" marker-end="url(#mIndigo)"/><path d="M399.40000000000003,266 L408,384 L812,384 L840,414" fill="none" stroke="#0ca678" stroke-width="1.8" stroke-linecap="round" marker-end="url(#mTeal)"/><path d="M279,266 L372,396 L1316,396 L1316,414" fill="none" stroke="#0ca678" stroke-width="1.8" stroke-linecap="round" stroke-dasharray="6 5" marker-end="url(#mTeal)"/><path d="M992,447 C956,447 996,447 960,447" fill="none" stroke="#0ca678" stroke-width="1.8" stroke-linecap="round" stroke-dasharray="6 5" marker-end="url(#mTeal)"/><rect x="392.375" y="90.7" width="41.25" height="18" rx="9" fill="#ffffff" stroke="#7d1c1c" stroke-opacity="0.45"/><text x="413" y="103.60000000000001" font-size="10" fill="#3a434f" text-anchor="middle">HTTPS</text><rect x="1171.05" y="187.5" width="70.5" height="18" rx="9" fill="#ffffff" stroke="#2f9e44" stroke-opacity="0.45"/><text x="1206.3" y="200.4" font-size="10" fill="#3a434f" text-anchor="middle">revalidate</text><rect x="147.375" y="379.5" width="41.25" height="18" rx="9" fill="#ffffff" stroke="#4263eb" stroke-opacity="0.45"/><text x="168" y="392.4" font-size="10" fill="#3a434f" text-anchor="middle">query</text><rect x="376.45" y="379.5" width="47.099999999999994" height="18" rx="9" fill="#ffffff" stroke="#7048e8" stroke-opacity="0.45"/><text x="400" y="392.4" font-size="10" fill="#3a434f" text-anchor="middle">verify</text><rect x="599.675" y="379.5" width="64.65" height="18" rx="9" fill="#ffffff" stroke="#7048e8" stroke-opacity="0.45"/><text x="632" y="392.4" font-size="10" fill="#3a434f" text-anchor="middle">authorize</text><rect x="866.3" y="379.5" width="35.4" height="18" rx="9" fill="#ffffff" stroke="#4263eb" stroke-opacity="0.45"/><text x="884" y="392.4" font-size="10" fill="#3a434f" text-anchor="middle">read</text><rect x="378.3" y="577.5" width="35.4" height="18" rx="9" fill="#ffffff" stroke="#7048e8" stroke-opacity="0.45"/><text x="396" y="590.4" font-size="10" fill="#3a434f" text-anchor="middle">SAML</text><rect x="592.75" y="577.5" width="70.5" height="18" rx="9" fill="#ffffff" stroke="#7048e8" stroke-opacity="0.45"/><text x="628" y="590.4" font-size="10" fill="#3a434f" text-anchor="middle">RBAC check</text><rect x="839.375" y="577.5" width="41.25" height="18" rx="9" fill="#ffffff" stroke="#f08c00" stroke-opacity="0.45"/><text x="860" y="590.4" font-size="10" fill="#3a434f" text-anchor="middle">r / w</text><rect x="1277.825" y="577.5" width="76.35" height="18" rx="9" fill="#ffffff" stroke="#7048e8" stroke-opacity="0.45"/><text x="1316" y="590.4" font-size="10" fill="#3a434f" text-anchor="middle">browser GET</text><rect x="836.45" y="278.5" width="47.099999999999994" height="18" rx="9" fill="#ffffff" stroke="#4263eb" stroke-opacity="0.45"/><text x="860" y="291.4" font-size="10" fill="#3a434f" text-anchor="middle">writes</text><rect x="679.375" y="382.5" width="41.25" height="18" rx="9" fill="#ffffff" stroke="#4263eb" stroke-opacity="0.45"/><text x="700" y="395.4" font-size="10" fill="#3a434f" text-anchor="middle">write</text><rect x="564.75" y="374.5" width="70.5" height="18" rx="9" fill="#ffffff" stroke="#0ca678" stroke-opacity="0.45"/><text x="600" y="387.4" font-size="10" fill="#3a434f" text-anchor="middle">read (RSC)</text><rect x="998.9" y="386.5" width="82.19999999999999" height="18" rx="9" fill="#ffffff" stroke="#0ca678" stroke-opacity="0.45"/><text x="1040" y="399.4" font-size="10" fill="#3a434f" text-anchor="middle">headshot URL</text><rect x="955.375" y="437.5" width="41.25" height="18" rx="9" fill="#ffffff" stroke="#0ca678" stroke-opacity="0.45"/><text x="976" y="450.4" font-size="10" fill="#3a434f" text-anchor="middle">merge</text><g><rect x="52" y="99" width="334.79999999999995" height="26" rx="8" fill="#ffffff" stroke="#0ca678" stroke-width="1.2"/><text x="219.39999999999998" y="116.5" font-size="12" font-weight="700" fill="#0b6e4f" text-anchor="middle">Next.js application — ECS Fargate task (sps-app)</text></g><g><rect x="36" y="38" width="250" height="48" rx="10" fill="#f1f3f5" stroke="#adb5bd" stroke-width="1.6" filter="url(#sh)"/><rect x="48" y="53" width="9" height="9" rx="2.5" fill="#868e96"/><text x="64" y="62" font-size="13.5" font-weight="700" fill="#343a40">CloudFront / public ALB</text><text x="50" y="79" font-size="11" fill="#5b6470">HTTPS</text></g><g><rect x="1166" y="38" width="250" height="48" rx="10" fill="#f1f3f5" stroke="#adb5bd" stroke-width="1.6" filter="url(#sh)"/><rect x="1178" y="53" width="9" height="9" rx="2.5" fill="#868e96"/><text x="1194" y="62" font-size="13.5" font-weight="700" fill="#343a40">ETL · internal ALB</text><text x="1180" y="79" font-size="11" fill="#5b6470">POST /api/revalidate</text></g><g><rect x="540" y="124" width="400" height="48" rx="10" fill="#e3faf3" stroke="#0ca678" stroke-width="1.6" filter="url(#sh)"/><rect x="552" y="139" width="9" height="9" rx="2.5" fill="#0ca678"/><text x="568" y="148" font-size="13.5" font-weight="700" fill="#0b6e4f">middleware.ts</text><text x="554" y="165" font-size="11" fill="#5b6470">auth gate · /edit, /api/edit</text></g><g><rect x="64" y="200" width="430" height="66" rx="10" fill="#e3faf3" stroke="#0ca678" stroke-width="1.6" filter="url(#sh)"/><rect x="76" y="215" width="9" height="9" rx="2.5" fill="#0ca678"/><text x="92" y="224" font-size="13.5" font-weight="700" fill="#0b6e4f">Public pages — RSC / ISR</text><text x="78" y="241" font-size="11" fill="#5b6470">scholars · topics · depts · centers</text><text x="78" y="256" font-size="11" fill="#5b6470">browse · search · about</text></g><g><rect x="986" y="200" width="430" height="66" rx="10" fill="#e3faf3" stroke="#0ca678" stroke-width="1.6" filter="url(#sh)"/><rect x="998" y="215" width="9" height="9" rx="2.5" fill="#0ca678"/><text x="1014" y="224" font-size="13.5" font-weight="700" fill="#0b6e4f">/edit UI — RSC (staff)</text><text x="1000" y="241" font-size="11" fill="#5b6470">scholar · publication · unit editors</text><text x="1000" y="256" font-size="11" fill="#5b6470">slug-requests</text></g><g><rect x="64" y="308" width="216" height="56" rx="10" fill="#e7ecff" stroke="#4263eb" stroke-width="1.6" filter="url(#sh)"/><rect x="76" y="323" width="9" height="9" rx="2.5" fill="#4263eb"/><text x="92" y="332" font-size="13.5" font-weight="700" fill="#2b3a8c">Search API</text><text x="78" y="349" font-size="11" fill="#5b6470">/api/search · /suggest</text></g><g><rect x="296" y="308" width="216" height="56" rx="10" fill="#e7ecff" stroke="#4263eb" stroke-width="1.6" filter="url(#sh)"/><rect x="308" y="323" width="9" height="9" rx="2.5" fill="#4263eb"/><text x="324" y="332" font-size="13.5" font-weight="700" fill="#2b3a8c">Auth / SAML API</text><text x="310" y="349" font-size="11" fill="#5b6470">/api/auth/* · session</text></g><g><rect x="528" y="308" width="216" height="56" rx="10" fill="#e7ecff" stroke="#4263eb" stroke-width="1.6" filter="url(#sh)"/><rect x="540" y="323" width="9" height="9" rx="2.5" fill="#4263eb"/><text x="556" y="332" font-size="13.5" font-weight="700" fill="#2b3a8c">Edit / write API</text><text x="542" y="349" font-size="11" fill="#5b6470">/api/edit/* · grant · suppress</text></g><g><rect x="760" y="308" width="216" height="56" rx="10" fill="#e7ecff" stroke="#4263eb" stroke-width="1.6" filter="url(#sh)"/><rect x="772" y="323" width="9" height="9" rx="2.5" fill="#4263eb"/><text x="788" y="332" font-size="13.5" font-weight="700" fill="#2b3a8c">Public-data API</text><text x="774" y="349" font-size="11" fill="#5b6470">/api/scholars · publications</text></g><g><rect x="992" y="308" width="216" height="56" rx="10" fill="#e7ecff" stroke="#4263eb" stroke-width="1.6" filter="url(#sh)"/><rect x="1004" y="323" width="9" height="9" rx="2.5" fill="#4263eb"/><text x="1020" y="332" font-size="13.5" font-weight="700" fill="#2b3a8c">Ops API</text><text x="1006" y="349" font-size="11" fill="#5b6470">/api/revalidate · health</text></g><g><rect x="64" y="414" width="200" height="66" rx="10" fill="#f0ebff" stroke="#7048e8" stroke-width="1.6" filter="url(#sh)"/><rect x="76" y="429" width="9" height="9" rx="2.5" fill="#7048e8"/><text x="92" y="438" font-size="13.5" font-weight="700" fill="#4a2fb0">Search client</text><text x="78" y="455" font-size="11" fill="#5b6470">lib/search</text></g><g><rect x="296" y="414" width="200" height="66" rx="10" fill="#f0ebff" stroke="#7048e8" stroke-width="1.6" filter="url(#sh)"/><rect x="308" y="429" width="9" height="9" rx="2.5" fill="#7048e8"/><text x="324" y="438" font-size="13.5" font-weight="700" fill="#4a2fb0">AuthN</text><text x="310" y="455" font-size="11" fill="#5b6470">SAML assertion + session</text></g><g><rect x="528" y="414" width="200" height="66" rx="10" fill="#f0ebff" stroke="#7048e8" stroke-width="1.6" filter="url(#sh)"/><rect x="540" y="429" width="9" height="9" rx="2.5" fill="#7048e8"/><text x="556" y="438" font-size="13.5" font-weight="700" fill="#4a2fb0">AuthZ + audit</text><text x="542" y="455" font-size="11" fill="#5b6470">RBAC · append-only</text></g><g><rect x="760" y="414" width="200" height="66" rx="10" fill="#f0ebff" stroke="#7048e8" stroke-width="1.6" filter="url(#sh)"/><rect x="772" y="429" width="9" height="9" rx="2.5" fill="#7048e8"/><text x="788" y="438" font-size="13.5" font-weight="700" fill="#4a2fb0">Data access</text><text x="774" y="455" font-size="11" fill="#5b6470">Prisma · db.read / db.write</text></g><g><rect x="992" y="414" width="200" height="66" rx="10" fill="#f0ebff" stroke="#7048e8" stroke-width="1.6" filter="url(#sh)"/><rect x="1004" y="429" width="9" height="9" rx="2.5" fill="#7048e8"/><text x="1020" y="438" font-size="13.5" font-weight="700" fill="#4a2fb0">Override-merge</text><text x="1006" y="455" font-size="11" fill="#5b6470">ADR-005 · read-time</text></g><g><rect x="1216" y="414" width="200" height="66" rx="10" fill="#f0ebff" stroke="#7048e8" stroke-width="1.6" filter="url(#sh)"/><rect x="1228" y="429" width="9" height="9" rx="2.5" fill="#7048e8"/><text x="1244" y="438" font-size="13.5" font-weight="700" fill="#4a2fb0">Headshot</text><text x="1230" y="455" font-size="11" fill="#5b6470">lib/headshot · URL only</text></g><g><rect x="64" y="694" width="200" height="60" rx="10" fill="#fff4d6" stroke="#f08c00" stroke-width="1.6" filter="url(#sh)"/><rect x="76" y="709" width="9" height="9" rx="2.5" fill="#f08c00"/><text x="92" y="718" font-size="13.5" font-weight="700" fill="#8a5a00">OpenSearch</text><text x="78" y="735" font-size="11" fill="#5b6470">alias: scholars</text></g><g><rect x="296" y="694" width="200" height="60" rx="10" fill="#f1f3f5" stroke="#adb5bd" stroke-width="1.6" filter="url(#sh)"/><rect x="308" y="709" width="9" height="9" rx="2.5" fill="#868e96"/><text x="324" y="718" font-size="13.5" font-weight="700" fill="#343a40">WCM SAML IdP</text><text x="310" y="735" font-size="11" fill="#5b6470">login-proxy</text></g><g><rect x="528" y="694" width="200" height="60" rx="10" fill="#f1f3f5" stroke="#adb5bd" stroke-width="1.6" filter="url(#sh)"/><rect x="540" y="709" width="9" height="9" rx="2.5" fill="#868e96"/><text x="556" y="718" font-size="13.5" font-weight="700" fill="#343a40">Enterprise Directory</text><text x="542" y="735" font-size="11" fill="#5b6470">LDAPS</text></g><g><rect x="760" y="694" width="200" height="60" rx="10" fill="#fff4d6" stroke="#f08c00" stroke-width="1.6" filter="url(#sh)"/><rect x="772" y="709" width="9" height="9" rx="2.5" fill="#f08c00"/><text x="788" y="718" font-size="13.5" font-weight="700" fill="#8a5a00">Aurora MySQL</text><text x="774" y="735" font-size="11" fill="#5b6470">reader + writer</text></g><g><rect x="1216" y="694" width="200" height="60" rx="10" fill="#f1f3f5" stroke="#adb5bd" stroke-width="1.6" filter="url(#sh)"/><rect x="1228" y="709" width="9" height="9" rx="2.5" fill="#868e96"/><text x="1244" y="718" font-size="13.5" font-weight="700" fill="#343a40">WCM directory</text><text x="1230" y="735" font-size="11" fill="#5b6470">headshot img (browser)</text></g></svg>