<svg xmlns="http://www.w3.org/2000/svg" viewBox="0 0 1770 800" width="1770" height="800" role="img" aria-labelledby="t-app-internals d-app-internals" font-family="Inter,-apple-system,Segoe UI,Helvetica,Arial,sans-serif"><title id="t-app-internals">Application internals</title><desc id="d-app-internals">Inside the single Next.js container: the public pages and staff /edit UI (React Server Components), the API route handlers grouped by purpose — the public-data surface spans scholars, publications, topics, methods, centers / units, NIH portfolio, funding opportunities, the center-collaboration network, and capped exports — and the internal libraries they share, wired to Aurora (reader/writer), OpenSearch (five per-entity aliases), the SAML IdP, and the WCM directory (LDAP role groups + live headshots); scoped grants and the audit log live in Aurora. ISR output is shared across tasks through an S3 cacheHandler (#1503). The /edit write path calls Amazon Bedrock for AI generation (overview · biosketch · CV) and Matcha concept extraction; reads ReCiter suggestions and writes opportunity submissions and core claims to ReciterAI's DynamoDB (rejects reach the ReCiter engine through the ETL); and reflects each commit post-response — ISR revalidate, CloudFront invalidation, OpenSearch suppression. The CV path reads clinical fields live from POPS (lib/edit/pops.ts). proxy.ts (Node runtime) gates /edit and impersonation, sets CSP on every document, and 301s legacy VIVO URLs.</desc><rect width="100%" height="100%" fill="#fbfcfe"/><defs><filter id="sh" x="-25%" y="-25%" width="150%" height="150%"><feDropShadow dx="0" dy="1.4" stdDeviation="2.4" flood-color="#0b1f3a" flood-opacity="0.14"/></filter><marker id="mGray" viewBox="0 0 10 10" refX="9" refY="5" markerWidth="9" markerHeight="9" markerUnits="userSpaceOnUse" orient="auto-start-reverse"><path d="M0.5,0.8 L9.4,5 L0.5,9.2 L3,5 Z" fill="#868e96"/></marker><marker id="mMaroon" viewBox="0 0 10 10" refX="9" refY="5" markerWidth="9" markerHeight="9" markerUnits="userSpaceOnUse" orient="auto-start-reverse"><path d="M0.5,0.8 L9.4,5 L0.5,9.2 L3,5 Z" fill="#7d1c1c"/></marker><marker id="mRed" viewBox="0 0 10 10" refX="9" refY="5" markerWidth="9" markerHeight="9" markerUnits="userSpaceOnUse" orient="auto-start-reverse"><path d="M0.5,0.8 L9.4,5 L0.5,9.2 L3,5 Z" fill="#e03131"/></marker><marker id="mGreen" viewBox="0 0 10 10" refX="9" refY="5" markerWidth="9" markerHeight="9" markerUnits="userSpaceOnUse" orient="auto-start-reverse"><path d="M0.5,0.8 L9.4,5 L0.5,9.2 L3,5 Z" fill="#2f9e44"/></marker><marker id="mIndigo" viewBox="0 0 10 10" refX="9" refY="5" markerWidth="9" markerHeight="9" markerUnits="userSpaceOnUse" orient="auto-start-reverse"><path d="M0.5,0.8 L9.4,5 L0.5,9.2 L3,5 Z" fill="#4263eb"/></marker><marker id="mViolet" viewBox="0 0 10 10" refX="9" refY="5" markerWidth="9" markerHeight="9" markerUnits="userSpaceOnUse" orient="auto-start-reverse"><path d="M0.5,0.8 L9.4,5 L0.5,9.2 L3,5 Z" fill="#7048e8"/></marker><marker id="mAmber" viewBox="0 0 10 10" refX="9" refY="5" markerWidth="9" markerHeight="9" markerUnits="userSpaceOnUse" orient="auto-start-reverse"><path d="M0.5,0.8 L9.4,5 L0.5,9.2 L3,5 Z" fill="#f08c00"/></marker><marker id="mTeal" viewBox="0 0 10 10" refX="9" refY="5" markerWidth="9" markerHeight="9" markerUnits="userSpaceOnUse" orient="auto-start-reverse"><path d="M0.5,0.8 L9.4,5 L0.5,9.2 L3,5 Z" fill="#0ca678"/></marker></defs><rect x="36" y="112" width="1430" height="552" rx="14" fill="#e3faf3" fill-opacity="0.03" stroke="#0ca678" stroke-width="1.4"><title>Next.js application — ECS Fargate task (sps-app)</title></rect><path d="M765,86 C765,122 765,92 765,128" fill="none" stroke="#7d1c1c" stroke-width="1.8" stroke-linecap="round" marker-end="url(#mMaroon)"/><path d="M1120,86 C1120,122 1120,92 1120,128" fill="none" stroke="#2f9e44" stroke-width="1.8" stroke-linecap="round" marker-end="url(#mGreen)"/><path d="M560,190 C560,226 485.4,178 485.4,214" fill="none" stroke="#868e96" stroke-width="1.8" stroke-linecap="round" marker-end="url(#mGray)"/><path d="M940,177.6 C976,177.6 974,233.8 1010,233.8" fill="none" stroke="#868e96" stroke-width="1.8" stroke-linecap="round" marker-end="url(#mGray)"/><path d="M420,214 C420,170.48 420,129.52 420,86" fill="none" stroke="#0ca678" stroke-width="1.8" stroke-linecap="round" marker-end="url(#mTeal)"/><path d="M172,388 C172,424 172,410 172,446" fill="none" stroke="#4263eb" stroke-width="1.8" stroke-linecap="round" marker-end="url(#mIndigo)"/><path d="M404,388 C404,424 404,410 404,446" fill="none" stroke="#7048e8" stroke-width="1.8" stroke-linecap="round" marker-end="url(#mViolet)"/><path d="M868,402 C868,438 868,410 868,446" fill="none" stroke="#4263eb" stroke-width="1.8" stroke-linecap="round" marker-end="url(#mIndigo)"/><path d="M1100,402 C1100,438 1100,410 1100,446" fill="none" stroke="#7048e8" stroke-width="1.8" stroke-linecap="round" marker-end="url(#mViolet)"/><path d="M172,512 C172,575.92 172,636.08 172,700" fill="none" stroke="#4263eb" stroke-width="1.8" stroke-linecap="round" marker-end="url(#mIndigo)"/><path d="M404,512 C404,575.92 404,636.08 404,700" fill="none" stroke="#7048e8" stroke-width="1.8" stroke-linecap="round" marker-end="url(#mViolet)"/><path d="M1100,512 C1100,575.92 1100,636.08 1100,700" fill="none" stroke="#7048e8" stroke-width="1.8" stroke-linecap="round" marker-end="url(#mViolet)"/><path d="M1009.28,512 L954.4,700" fill="none" stroke="#f08c00" stroke-width="1.8" stroke-linecap="round" marker-end="url(#mAmber)"/><path d="M868,512 C868,575.92 868,636.08 868,700" fill="none" stroke="#f08c00" stroke-width="1.8" stroke-linecap="round" marker-end="url(#mAmber)"/><path d="M636,512 C636,575.92 636,636.08 636,700" fill="none" stroke="#7048e8" stroke-width="1.8" stroke-linecap="round" stroke-dasharray="6 5" marker-end="url(#mViolet)"/><path d="M1047,280 L1039.2,322" fill="none" stroke="#4263eb" stroke-width="1.8" stroke-linecap="round" marker-end="url(#mIndigo)"/><path d="M1008.52,402 L1009,424 L944,424 L943.6,446" fill="none" stroke="#4263eb" stroke-width="1.8" stroke-linecap="round" marker-end="url(#mIndigo)"/><path d="M1228,362 L1490,362" fill="none" stroke="#7048e8" stroke-width="1.8" stroke-linecap="round" marker-end="url(#mViolet)"/><path d="M1228,390 C1322.079296340906,390 1395.920703659094,479 1490,479" fill="none" stroke="#f08c00" stroke-width="1.8" stroke-linecap="round" stroke-dasharray="6 5" marker-end="url(#mAmber)"/><path d="M1228,331.6 C1319.764129288083,331.6 1398.235870711917,266.8 1490,266.8" fill="none" stroke="#868e96" stroke-width="1.8" stroke-linecap="round" stroke-dasharray="6 5" marker-end="url(#mGray)"/><path d="M1380,233.8 L1490,233.8" fill="none" stroke="#868e96" stroke-width="1.8" stroke-linecap="round" stroke-dasharray="6 5" marker-end="url(#mGray)"/><path d="M494,240.4 L690,240.4 L690,424 L792.4,424 L792.4,446" fill="none" stroke="#0ca678" stroke-width="1.8" stroke-linecap="round" marker-end="url(#mTeal)"/><path d="M494,263.5 L600,263.5 L600,446" fill="none" stroke="#0ca678" stroke-width="1.8" stroke-linecap="round" stroke-dasharray="6 5" marker-end="url(#mTeal)"/><rect x="744.375" y="97.5" width="41.25" height="18" rx="9" fill="#ffffff" stroke="#7d1c1c" stroke-opacity="0.45"/><text x="765" y="110.4" font-size="10" fill="#3a434f" text-anchor="middle">HTTPS</text><rect x="1084.75" y="97.5" width="70.5" height="18" rx="9" fill="#ffffff" stroke="#2f9e44" stroke-opacity="0.45"/><text x="1120" y="110.4" font-size="10" fill="#3a434f" text-anchor="middle">revalidate</text><rect x="375.975" y="140.5" width="88.05" height="18" rx="9" fill="#ffffff" stroke="#0ca678" stroke-opacity="0.45"/><text x="420" y="153.4" font-size="10" fill="#3a434f" text-anchor="middle">ISR get / set</text><rect x="151.375" y="407.5" width="41.25" height="18" rx="9" fill="#ffffff" stroke="#4263eb" stroke-opacity="0.45"/><text x="172" y="420.4" font-size="10" fill="#3a434f" text-anchor="middle">query</text><rect x="380.45" y="407.5" width="47.099999999999994" height="18" rx="9" fill="#ffffff" stroke="#7048e8" stroke-opacity="0.45"/><text x="404" y="420.4" font-size="10" fill="#3a434f" text-anchor="middle">verify</text><rect x="850.3" y="414.5" width="35.4" height="18" rx="9" fill="#ffffff" stroke="#4263eb" stroke-opacity="0.45"/><text x="868" y="427.4" font-size="10" fill="#3a434f" text-anchor="middle">read</text><rect x="1067.675" y="414.5" width="64.65" height="18" rx="9" fill="#ffffff" stroke="#7048e8" stroke-opacity="0.45"/><text x="1100" y="427.4" font-size="10" fill="#3a434f" text-anchor="middle">authorize</text><rect x="386.3" y="596.5" width="35.4" height="18" rx="9" fill="#ffffff" stroke="#7048e8" stroke-opacity="0.45"/><text x="404" y="609.4" font-size="10" fill="#3a434f" text-anchor="middle">SAML</text><rect x="1061.825" y="596.5" width="76.35" height="18" rx="9" fill="#ffffff" stroke="#7048e8" stroke-opacity="0.45"/><text x="1100" y="609.4" font-size="10" fill="#3a434f" text-anchor="middle">LDAP groups</text><rect x="934.8899999999999" y="596.5" width="93.89999999999999" height="18" rx="9" fill="#ffffff" stroke="#f08c00" stroke-opacity="0.45"/><text x="981.8399999999999" y="609.4" font-size="10" fill="#3a434f" text-anchor="middle">grants · audit</text><rect x="847.375" y="596.5" width="41.25" height="18" rx="9" fill="#ffffff" stroke="#f08c00" stroke-opacity="0.45"/><text x="868" y="609.4" font-size="10" fill="#3a434f" text-anchor="middle">r / w</text><rect x="597.825" y="596.5" width="76.35" height="18" rx="9" fill="#ffffff" stroke="#7048e8" stroke-opacity="0.45"/><text x="636" y="609.4" font-size="10" fill="#3a434f" text-anchor="middle">browser GET</text><rect x="1019.55" y="291.5" width="47.099999999999994" height="18" rx="9" fill="#ffffff" stroke="#4263eb" stroke-opacity="0.45"/><text x="1043.1" y="304.4" font-size="10" fill="#3a434f" text-anchor="middle">writes</text><rect x="957.375" y="414.5" width="41.25" height="18" rx="9" fill="#ffffff" stroke="#4263eb" stroke-opacity="0.45"/><text x="978" y="427.4" font-size="10" fill="#3a434f" text-anchor="middle">write</text><rect x="1344.225" y="352.5" width="29.549999999999997" height="18" rx="9" fill="#ffffff" stroke="#7048e8" stroke-opacity="0.45"/><text x="1359" y="365.4" font-size="10" fill="#3a434f" text-anchor="middle">LLM</text><rect x="1268.25" y="428.5" width="187.5" height="18" rx="9" fill="#ffffff" stroke="#f08c00" stroke-opacity="0.45"/><text x="1362" y="441.4" font-size="10" fill="#3a434f" text-anchor="middle">read · intake · core writeback</text><rect x="1304.75" y="308.5" width="70.5" height="18" rx="9" fill="#ffffff" stroke="#868e96" stroke-opacity="0.45"/><text x="1340" y="321.4" font-size="10" fill="#3a434f" text-anchor="middle">invalidate</text><rect x="1388.05" y="224.3" width="93.89999999999999" height="18" rx="9" fill="#ffffff" stroke="#868e96" stroke-opacity="0.45"/><text x="1435" y="237.20000000000002" font-size="10" fill="#3a434f" text-anchor="middle">usage / health</text><rect x="704.75" y="414.5" width="70.5" height="18" rx="9" fill="#ffffff" stroke="#0ca678" stroke-opacity="0.45"/><text x="740" y="427.4" font-size="10" fill="#3a434f" text-anchor="middle">read (RSC)</text><rect x="558.9" y="352.5" width="82.19999999999999" height="18" rx="9" fill="#ffffff" stroke="#0ca678" stroke-opacity="0.45"/><text x="600" y="365.4" font-size="10" fill="#3a434f" text-anchor="middle">headshot URL</text><g><rect x="52" y="99" width="334.79999999999995" height="26" rx="8" fill="#ffffff" stroke="#0ca678" stroke-width="1.2"/><text x="219.39999999999998" y="116.5" font-size="12" font-weight="700" fill="#0b6e4f" text-anchor="middle">Next.js application — ECS Fargate task (sps-app)</text></g><g><title>S3 ISR cache — shared cacheHandler · SWR busts</title><rect x="330" y="38" width="230" height="48" rx="10" fill="#fff4d6" stroke="#f08c00" stroke-width="1.6" filter="url(#sh)"/><rect x="342" y="53" width="9" height="9" rx="2.5" fill="#f08c00"/><text x="358" y="62" font-size="13.5" font-weight="700" fill="#8a5a00">S3 ISR cache</text><text x="344" y="79" font-size="11" fill="#5b6470">shared cacheHandler · SWR busts</text></g><g><title>CloudFront / public ALB — HTTPS</title><rect x="640" y="38" width="250" height="48" rx="10" fill="#f1f3f5" stroke="#adb5bd" stroke-width="1.6" filter="url(#sh)"/><rect x="652" y="53" width="9" height="9" rx="2.5" fill="#868e96"/><text x="668" y="62" font-size="13.5" font-weight="700" fill="#343a40">CloudFront / public ALB</text><text x="654" y="79" font-size="11" fill="#5b6470">HTTPS</text></g><g><title>ETL · internal ALB — POST /api/revalidate</title><rect x="1000" y="38" width="240" height="48" rx="10" fill="#f1f3f5" stroke="#adb5bd" stroke-width="1.6" filter="url(#sh)"/><rect x="1012" y="53" width="9" height="9" rx="2.5" fill="#868e96"/><text x="1028" y="62" font-size="13.5" font-weight="700" fill="#343a40">ETL · internal ALB</text><text x="1014" y="79" font-size="11" fill="#5b6470">POST /api/revalidate</text></g><g><title>proxy.ts (Node runtime) — SSO gate · /edit, /api/edit, /api/impersonation; CSP headers · legacy VIVO 301s</title><rect x="540" y="128" width="400" height="62" rx="10" fill="#e3faf3" stroke="#0ca678" stroke-width="1.6" filter="url(#sh)"/><rect x="552" y="143" width="9" height="9" rx="2.5" fill="#0ca678"/><text x="568" y="152" font-size="13.5" font-weight="700" fill="#0b6e4f">proxy.ts (Node runtime)</text><text x="554" y="169" font-size="11" fill="#5b6470">SSO gate · /edit, /api/edit, /api/impersonation</text><text x="554" y="184" font-size="11" fill="#5b6470">CSP headers · legacy VIVO 301s</text></g><g><title>Ops API — /api/revalidate · health; analytics · csp-report</title><rect x="1000" y="128" width="240" height="62" rx="10" fill="#e7ecff" stroke="#4263eb" stroke-width="1.6" filter="url(#sh)"/><rect x="1012" y="143" width="9" height="9" rx="2.5" fill="#4263eb"/><text x="1028" y="152" font-size="13.5" font-weight="700" fill="#2b3a8c">Ops API</text><text x="1014" y="169" font-size="11" fill="#5b6470">/api/revalidate · health</text><text x="1014" y="184" font-size="11" fill="#5b6470">analytics · csp-report</text></g><g><title>Public pages — RSC / ISR — scholars · topics · methods · cores; depts · centers · browse · search · about</title><rect x="64" y="214" width="430" height="66" rx="10" fill="#e3faf3" stroke="#0ca678" stroke-width="1.6" filter="url(#sh)"/><rect x="76" y="229" width="9" height="9" rx="2.5" fill="#0ca678"/><text x="92" y="238" font-size="13.5" font-weight="700" fill="#0b6e4f">Public pages — RSC / ISR</text><text x="78" y="255" font-size="11" fill="#5b6470">scholars · topics · methods · cores</text><text x="78" y="270" font-size="11" fill="#5b6470">depts · centers · browse · search · about</text></g><g><title>/edit UI — RSC (staff) — scholar · unit · center · core editors; reports · queues · roles · Matcha · ETL status · usage</title><rect x="1010" y="214" width="370" height="66" rx="10" fill="#e3faf3" stroke="#0ca678" stroke-width="1.6" filter="url(#sh)"/><rect x="1022" y="229" width="9" height="9" rx="2.5" fill="#0ca678"/><text x="1038" y="238" font-size="13.5" font-weight="700" fill="#0b6e4f">/edit UI — RSC (staff)</text><text x="1024" y="255" font-size="11" fill="#5b6470">scholar · unit · center · core editors</text><text x="1024" y="270" font-size="11" fill="#5b6470">reports · queues · roles · Matcha · ETL status · usage</text></g><g><title>Search API — /api/search · suggest; suggest-methods · key-paper</title><rect x="64" y="322" width="216" height="66" rx="10" fill="#e7ecff" stroke="#4263eb" stroke-width="1.6" filter="url(#sh)"/><rect x="76" y="337" width="9" height="9" rx="2.5" fill="#4263eb"/><text x="92" y="346" font-size="13.5" font-weight="700" fill="#2b3a8c">Search API</text><text x="78" y="363" font-size="11" fill="#5b6470">/api/search · suggest</text><text x="78" y="378" font-size="11" fill="#5b6470">suggest-methods · key-paper</text></g><g><title>Auth / SAML API — /api/auth/* · session; impersonation (superuser)</title><rect x="296" y="322" width="216" height="66" rx="10" fill="#e7ecff" stroke="#4263eb" stroke-width="1.6" filter="url(#sh)"/><rect x="308" y="337" width="9" height="9" rx="2.5" fill="#4263eb"/><text x="324" y="346" font-size="13.5" font-weight="700" fill="#2b3a8c">Auth / SAML API</text><text x="310" y="363" font-size="11" fill="#5b6470">/api/auth/* · session</text><text x="310" y="378" font-size="11" fill="#5b6470">impersonation (superuser)</text></g><g><title>Public-data API — scholars · pubs · topics · methods; units · NIH · opps · collab; export (scholars cap 50)</title><rect x="760" y="322" width="216" height="80" rx="10" fill="#e7ecff" stroke="#4263eb" stroke-width="1.6" filter="url(#sh)"/><rect x="772" y="337" width="9" height="9" rx="2.5" fill="#4263eb"/><text x="788" y="346" font-size="13.5" font-weight="700" fill="#2b3a8c">Public-data API</text><text x="774" y="363" font-size="11" fill="#5b6470">scholars · pubs · topics · methods</text><text x="774" y="378" font-size="11" fill="#5b6470">units · NIH · opps · collab</text><text x="774" y="393" font-size="11" fill="#5b6470">export (scholars cap 50)</text></g><g><title>Edit / write API — /api/edit/* · suppress · roster; AI: overview · biosketch · CV · Matcha; post-commit: ISR · CDN · search</title><rect x="992" y="322" width="236" height="80" rx="10" fill="#e7ecff" stroke="#4263eb" stroke-width="1.6" filter="url(#sh)"/><rect x="1004" y="337" width="9" height="9" rx="2.5" fill="#4263eb"/><text x="1020" y="346" font-size="13.5" font-weight="700" fill="#2b3a8c">Edit / write API</text><text x="1006" y="363" font-size="11" fill="#5b6470">/api/edit/* · suppress · roster</text><text x="1006" y="378" font-size="11" fill="#5b6470">AI: overview · biosketch · CV · Matcha</text><text x="1006" y="393" font-size="11" fill="#5b6470">post-commit: ISR · CDN · search</text></g><g><title>Search client — lib/search · 5 entity aliases</title><rect x="64" y="446" width="216" height="66" rx="10" fill="#f0ebff" stroke="#7048e8" stroke-width="1.6" filter="url(#sh)"/><rect x="76" y="461" width="9" height="9" rx="2.5" fill="#7048e8"/><text x="92" y="470" font-size="13.5" font-weight="700" fill="#4a2fb0">Search client</text><text x="78" y="487" font-size="11" fill="#5b6470">lib/search · 5 entity aliases</text></g><g><title>AuthN — SAML assertion + session</title><rect x="296" y="446" width="216" height="66" rx="10" fill="#f0ebff" stroke="#7048e8" stroke-width="1.6" filter="url(#sh)"/><rect x="308" y="461" width="9" height="9" rx="2.5" fill="#7048e8"/><text x="324" y="470" font-size="13.5" font-weight="700" fill="#4a2fb0">AuthN</text><text x="310" y="487" font-size="11" fill="#5b6470">SAML assertion + session</text></g><g><title>Headshot — lib/headshot · URL only</title><rect x="528" y="446" width="216" height="66" rx="10" fill="#f0ebff" stroke="#7048e8" stroke-width="1.6" filter="url(#sh)"/><rect x="540" y="461" width="9" height="9" rx="2.5" fill="#7048e8"/><text x="556" y="470" font-size="13.5" font-weight="700" fill="#4a2fb0">Headshot</text><text x="542" y="487" font-size="11" fill="#5b6470">lib/headshot · URL only</text></g><g><title>Data access — Prisma · db.read / db.write; override-merge (ADR-005)</title><rect x="760" y="446" width="216" height="66" rx="10" fill="#f0ebff" stroke="#7048e8" stroke-width="1.6" filter="url(#sh)"/><rect x="772" y="461" width="9" height="9" rx="2.5" fill="#7048e8"/><text x="788" y="470" font-size="13.5" font-weight="700" fill="#4a2fb0">Data access</text><text x="774" y="487" font-size="11" fill="#5b6470">Prisma · db.read / db.write</text><text x="774" y="502" font-size="11" fill="#5b6470">override-merge (ADR-005)</text></g><g><title>AuthZ + audit — LDAP roles + unit_admin grants; audit log (append-only)</title><rect x="992" y="446" width="216" height="66" rx="10" fill="#f0ebff" stroke="#7048e8" stroke-width="1.6" filter="url(#sh)"/><rect x="1004" y="461" width="9" height="9" rx="2.5" fill="#7048e8"/><text x="1020" y="470" font-size="13.5" font-weight="700" fill="#4a2fb0">AuthZ + audit</text><text x="1006" y="487" font-size="11" fill="#5b6470">LDAP roles + unit_admin grants</text><text x="1006" y="502" font-size="11" fill="#5b6470">audit log (append-only)</text></g><g><title>OpenSearch — scholars-people · -publications; -funding · -opportunities · -trials</title><rect x="64" y="700" width="216" height="66" rx="10" fill="#fff4d6" stroke="#f08c00" stroke-width="1.6" filter="url(#sh)"/><rect x="76" y="715" width="9" height="9" rx="2.5" fill="#f08c00"/><text x="92" y="724" font-size="13.5" font-weight="700" fill="#8a5a00">OpenSearch</text><text x="78" y="741" font-size="11" fill="#5b6470">scholars-people · -publications</text><text x="78" y="756" font-size="11" fill="#5b6470">-funding · -opportunities · -trials</text></g><g><title>WCM SAML IdP — login-proxy</title><rect x="296" y="700" width="216" height="60" rx="10" fill="#f1f3f5" stroke="#adb5bd" stroke-width="1.6" filter="url(#sh)"/><rect x="308" y="715" width="9" height="9" rx="2.5" fill="#868e96"/><text x="324" y="724" font-size="13.5" font-weight="700" fill="#343a40">WCM SAML IdP</text><text x="310" y="741" font-size="11" fill="#5b6470">login-proxy</text></g><g><title>WCM directory — headshot img (browser)</title><rect x="528" y="700" width="216" height="60" rx="10" fill="#f1f3f5" stroke="#adb5bd" stroke-width="1.6" filter="url(#sh)"/><rect x="540" y="715" width="9" height="9" rx="2.5" fill="#868e96"/><text x="556" y="724" font-size="13.5" font-weight="700" fill="#343a40">WCM directory</text><text x="542" y="741" font-size="11" fill="#5b6470">headshot img (browser)</text></g><g><title>Aurora MySQL — reader + writer</title><rect x="760" y="700" width="216" height="60" rx="10" fill="#fff4d6" stroke="#f08c00" stroke-width="1.6" filter="url(#sh)"/><rect x="772" y="715" width="9" height="9" rx="2.5" fill="#f08c00"/><text x="788" y="724" font-size="13.5" font-weight="700" fill="#8a5a00">Aurora MySQL</text><text x="774" y="741" font-size="11" fill="#5b6470">reader + writer</text></g><g><title>Enterprise Directory — LDAPS</title><rect x="992" y="700" width="216" height="60" rx="10" fill="#f1f3f5" stroke="#adb5bd" stroke-width="1.6" filter="url(#sh)"/><rect x="1004" y="715" width="9" height="9" rx="2.5" fill="#868e96"/><text x="1020" y="724" font-size="13.5" font-weight="700" fill="#343a40">Enterprise Directory</text><text x="1006" y="741" font-size="11" fill="#5b6470">LDAPS</text></g><g><title>AWS APIs — CloudFront invalidate (outbox); Athena · CloudWatch (usage, health)</title><rect x="1490" y="214" width="252" height="66" rx="10" fill="#f1f3f5" stroke="#adb5bd" stroke-width="1.6" filter="url(#sh)"/><rect x="1502" y="229" width="9" height="9" rx="2.5" fill="#868e96"/><text x="1518" y="238" font-size="13.5" font-weight="700" fill="#343a40">AWS APIs</text><text x="1504" y="255" font-size="11" fill="#5b6470">CloudFront invalidate (outbox)</text><text x="1504" y="270" font-size="11" fill="#5b6470">Athena · CloudWatch (usage, health)</text></g><g><title>Amazon Bedrock — Opus generate · Sonnet extract</title><rect x="1490" y="330" width="252" height="64" rx="10" fill="#f1f3f5" stroke="#adb5bd" stroke-width="1.6" filter="url(#sh)"/><rect x="1502" y="345" width="9" height="9" rx="2.5" fill="#868e96"/><text x="1518" y="354" font-size="13.5" font-weight="700" fill="#343a40">Amazon Bedrock</text><text x="1504" y="371" font-size="11" fill="#5b6470">Opus generate · Sonnet extract</text></g><g><title>ReCiter · ReciterAI data — DynamoDB + S3: suggestions (read); opp. intake · core claims (write)</title><rect x="1490" y="446" width="252" height="66" rx="10" fill="#fff4d6" stroke="#f08c00" stroke-width="1.6" filter="url(#sh)"/><rect x="1502" y="461" width="9" height="9" rx="2.5" fill="#f08c00"/><text x="1518" y="470" font-size="13.5" font-weight="700" fill="#8a5a00">ReCiter · ReciterAI data</text><text x="1504" y="487" font-size="11" fill="#5b6470">DynamoDB + S3: suggestions (read)</text><text x="1504" y="502" font-size="11" fill="#5b6470">opp. intake · core claims (write)</text></g></svg>