<svg xmlns="http://www.w3.org/2000/svg" viewBox="0 0 1400 860" width="1400" height="860" font-family="Inter,-apple-system,Segoe UI,Helvetica,Arial,sans-serif"><rect width="100%" height="100%" fill="#fbfcfe"/><defs><filter id="sh" x="-25%" y="-25%" width="150%" height="150%"><feDropShadow dx="0" dy="1.4" stdDeviation="2.4" flood-color="#0b1f3a" flood-opacity="0.14"/></filter><marker id="mGray" viewBox="0 0 10 10" refX="9" refY="5" markerWidth="9" markerHeight="9" markerUnits="userSpaceOnUse" orient="auto-start-reverse"><path d="M0.5,0.8 L9.4,5 L0.5,9.2 L3,5 Z" fill="#868e96"/></marker><marker id="mMaroon" viewBox="0 0 10 10" refX="9" refY="5" markerWidth="9" markerHeight="9" markerUnits="userSpaceOnUse" orient="auto-start-reverse"><path d="M0.5,0.8 L9.4,5 L0.5,9.2 L3,5 Z" fill="#7d1c1c"/></marker><marker id="mRed" viewBox="0 0 10 10" refX="9" refY="5" markerWidth="9" markerHeight="9" markerUnits="userSpaceOnUse" orient="auto-start-reverse"><path d="M0.5,0.8 L9.4,5 L0.5,9.2 L3,5 Z" fill="#e03131"/></marker><marker id="mGreen" viewBox="0 0 10 10" refX="9" refY="5" markerWidth="9" markerHeight="9" markerUnits="userSpaceOnUse" orient="auto-start-reverse"><path d="M0.5,0.8 L9.4,5 L0.5,9.2 L3,5 Z" fill="#2f9e44"/></marker><marker id="mIndigo" viewBox="0 0 10 10" refX="9" refY="5" markerWidth="9" markerHeight="9" markerUnits="userSpaceOnUse" orient="auto-start-reverse"><path d="M0.5,0.8 L9.4,5 L0.5,9.2 L3,5 Z" fill="#4263eb"/></marker><marker id="mViolet" viewBox="0 0 10 10" refX="9" refY="5" markerWidth="9" markerHeight="9" markerUnits="userSpaceOnUse" orient="auto-start-reverse"><path d="M0.5,0.8 L9.4,5 L0.5,9.2 L3,5 Z" fill="#7048e8"/></marker><marker id="mAmber" viewBox="0 0 10 10" refX="9" refY="5" markerWidth="9" markerHeight="9" markerUnits="userSpaceOnUse" orient="auto-start-reverse"><path d="M0.5,0.8 L9.4,5 L0.5,9.2 L3,5 Z" fill="#f08c00"/></marker><marker id="mTeal" viewBox="0 0 10 10" refX="9" refY="5" markerWidth="9" markerHeight="9" markerUnits="userSpaceOnUse" orient="auto-start-reverse"><path d="M0.5,0.8 L9.4,5 L0.5,9.2 L3,5 Z" fill="#0ca678"/></marker></defs><rect x="300" y="140" width="840" height="468" rx="14" fill="#e7ecff" fill-opacity="0.06" stroke="#4263eb" stroke-width="1.4"/><rect x="280" y="724" width="978" height="108" rx="14" fill="#f0ebff" fill-opacity="0.05" stroke="#7048e8" stroke-width="1.4"/><path d="M210,71 C329,71 441,71 560,71" fill="none" stroke="#7d1c1c" stroke-width="1.8" stroke-linecap="round" marker-end="url(#mMaroon)"/><path d="M715,102 C715,138 715,140 715,176" fill="none" stroke="#7d1c1c" stroke-width="1.8" stroke-linecap="round" marker-end="url(#mMaroon)"/><path d="M715,232 C715,268 715,250 715,286" fill="none" stroke="#4263eb" stroke-width="1.8" stroke-linecap="round" marker-end="url(#mIndigo)"/><path d="M260,274 C362.5060284073088,274 457.4939715926912,303.92 560,303.92" fill="none" stroke="#7048e8" stroke-width="1.8" stroke-linecap="round" stroke-dasharray="6 5" marker-end="url(#mViolet)"/><path d="M260,365 C362.8723714776713,365 457.1276285223287,325.68 560,325.68" fill="none" stroke="#868e96" stroke-width="1.8" stroke-linecap="round" marker-end="url(#mGray)"/><path d="M260,443 C367.8002479403457,443 452.1997520596543,340.4 560,340.4" fill="none" stroke="#868e96" stroke-width="1.8" stroke-linecap="round" marker-end="url(#mGray)"/><path d="M653,350 C653,402.5954394981162 520.6,377.4045605018838 520.6,430" fill="none" stroke="#f08c00" stroke-width="1.8" stroke-linecap="round" marker-end="url(#mAmber)"/><path d="M730.5,350 C730.5,386 733,394 733,430" fill="none" stroke="#f08c00" stroke-width="1.8" stroke-linecap="round" marker-end="url(#mAmber)"/><path d="M814.2,350 C814.2,399.148714082873 934.6,380.851285917127 934.6,430" fill="none" stroke="#f08c00" stroke-width="1.8" stroke-linecap="round" marker-end="url(#mAmber)"/><path d="M420,346 C420,382 435.8,394 435.8,430" fill="none" stroke="#868e96" stroke-width="1.8" stroke-linecap="round" stroke-dasharray="6 5" marker-end="url(#mGray)"/><path d="M1270,250 C1270,286 1270,246 1270,282" fill="none" stroke="#2f9e44" stroke-width="1.8" stroke-linecap="round" marker-end="url(#mGreen)"/><path d="M1180,312 L1155,312 L1155,558 L882,558 L870,535" fill="none" stroke="#2f9e44" stroke-width="1.8" stroke-linecap="round" marker-end="url(#mGreen)"/><path d="M659.2,520 C659.2,468.5075191508507 510,545.4924808491493 510,494" fill="none" stroke="#2f9e44" stroke-width="1.8" stroke-linecap="round" marker-end="url(#mGreen)"/><path d="M746,520 C746,484 733,530 733,494" fill="none" stroke="#2f9e44" stroke-width="1.8" stroke-linecap="round" marker-end="url(#mGreen)"/><path d="M870,544 L1110,544 L1110,360 L1110,342" fill="none" stroke="#2f9e44" stroke-width="1.8" stroke-linecap="round" marker-end="url(#mGreen)"/><path d="M1088,455.6 C1124,455.6 1144,454.8 1180,454.8" fill="none" stroke="#868e96" stroke-width="1.8" stroke-linecap="round" stroke-dasharray="6 5" marker-end="url(#mGray)"/><path d="M504.12,608 C504.12,644 504,600 504,636" fill="none" stroke="#868e96" stroke-width="1.8" stroke-linecap="round" stroke-dasharray="6 5" marker-end="url(#mGray)"/><path d="M870.36,608 C870.36,644 870,600 870,636" fill="none" stroke="#868e96" stroke-width="1.8" stroke-linecap="round" stroke-dasharray="6 5" marker-end="url(#mGray)"/><path d="M584.8,102 L282,120 L282,735 L425,748" fill="none" stroke="#868e96" stroke-width="1.8" stroke-linecap="round" stroke-dasharray="6 5" marker-end="url(#mGray)"/><path d="M550,779 C586,779 584,779 620,779" fill="none" stroke="#7048e8" stroke-width="1.8" stroke-linecap="round" marker-end="url(#mViolet)"/><path d="M884,779 C920,779 918,779 954,779" fill="none" stroke="#7048e8" stroke-width="1.8" stroke-linecap="round" marker-end="url(#mViolet)"/><rect x="364.375" y="61.5" width="41.25" height="18" rx="9" fill="#ffffff" stroke="#7d1c1c" stroke-opacity="0.45"/><text x="385" y="74.4" font-size="10" fill="#3a434f" text-anchor="middle">HTTPS</text><rect x="665.125" y="129.5" width="99.75" height="18" rx="9" fill="#ffffff" stroke="#7d1c1c" stroke-opacity="0.45"/><text x="715" y="142.4" font-size="10" fill="#3a434f" text-anchor="middle">X-Origin-Verify</text><rect x="377.675" y="279.46" width="64.65" height="18" rx="9" fill="#ffffff" stroke="#7048e8" stroke-opacity="0.45"/><text x="410" y="292.35999999999996" font-size="10" fill="#3a434f" text-anchor="middle">valueFrom</text><rect x="392.3" y="335.84" width="35.4" height="18" rx="9" fill="#ffffff" stroke="#868e96" stroke-opacity="0.45"/><text x="410" y="348.73999999999995" font-size="10" fill="#3a434f" text-anchor="middle">SAML</text><rect x="389.375" y="382.2" width="41.25" height="18" rx="9" fill="#ffffff" stroke="#868e96" stroke-opacity="0.45"/><text x="410" y="395.09999999999997" font-size="10" fill="#3a434f" text-anchor="middle">LDAPS</text><rect x="563.2500000000001" y="380.5" width="47.099999999999994" height="18" rx="9" fill="#ffffff" stroke="#f08c00" stroke-opacity="0.45"/><text x="586.8000000000001" y="393.4" font-size="10" fill="#3a434f" text-anchor="middle">db r/w</text><rect x="708.2" y="380.5" width="47.099999999999994" height="18" rx="9" fill="#ffffff" stroke="#f08c00" stroke-opacity="0.45"/><text x="731.75" y="393.4" font-size="10" fill="#3a434f" text-anchor="middle">search</text><rect x="824.5250000000001" y="380.5" width="99.75" height="18" rx="9" fill="#ffffff" stroke="#f08c00" stroke-opacity="0.45"/><text x="874.4000000000001" y="393.4" font-size="10" fill="#3a434f" text-anchor="middle">audit (same tx)</text><rect x="401.425" y="378.5" width="52.949999999999996" height="18" rx="9" fill="#ffffff" stroke="#868e96" stroke-opacity="0.45"/><text x="427.90000000000003" y="391.4" font-size="10" fill="#3a434f" text-anchor="middle">migrate</text><rect x="1131.45" y="548.5" width="47.099999999999994" height="18" rx="9" fill="#ffffff" stroke="#2f9e44" stroke-opacity="0.45"/><text x="1155" y="561.4" font-size="10" fill="#3a434f" text-anchor="middle">invoke</text><rect x="561.0500000000001" y="497.5" width="47.099999999999994" height="18" rx="9" fill="#ffffff" stroke="#2f9e44" stroke-opacity="0.45"/><text x="584.6" y="510.4" font-size="10" fill="#3a434f" text-anchor="middle">upsert</text><rect x="704.25" y="497.5" width="70.5" height="18" rx="9" fill="#ffffff" stroke="#2f9e44" stroke-opacity="0.45"/><text x="739.5" y="510.4" font-size="10" fill="#3a434f" text-anchor="middle">alias swap</text><rect x="1074.75" y="534.5" width="70.5" height="18" rx="9" fill="#ffffff" stroke="#2f9e44" stroke-opacity="0.45"/><text x="1110" y="547.4" font-size="10" fill="#3a434f" text-anchor="middle">revalidate</text><rect x="1095.825" y="445.70000000000005" width="76.35" height="18" rx="9" fill="#ffffff" stroke="#868e96" stroke-opacity="0.45"/><text x="1134" y="458.6" font-size="10" fill="#3a434f" text-anchor="middle">backup copy</text><rect x="480.51" y="612.5" width="47.099999999999994" height="18" rx="9" fill="#ffffff" stroke="#868e96" stroke-opacity="0.45"/><text x="504.06" y="625.4" font-size="10" fill="#3a434f" text-anchor="middle">traces</text><rect x="837.855" y="612.5" width="64.65" height="18" rx="9" fill="#ffffff" stroke="#868e96" stroke-opacity="0.45"/><text x="870.1800000000001" y="625.4" font-size="10" fill="#3a434f" text-anchor="middle">telemetry</text><rect x="243.825" y="110.5" width="76.35" height="18" rx="9" fill="#ffffff" stroke="#868e96" stroke-opacity="0.45"/><text x="282" y="123.4" font-size="10" fill="#3a434f" text-anchor="middle">access logs</text><rect x="567.3" y="769.5" width="35.4" height="18" rx="9" fill="#ffffff" stroke="#7048e8" stroke-opacity="0.45"/><text x="585" y="782.4" font-size="10" fill="#3a434f" text-anchor="middle">scan</text><rect x="895.45" y="769.5" width="47.099999999999994" height="18" rx="9" fill="#ffffff" stroke="#7048e8" stroke-opacity="0.45"/><text x="919" y="782.4" font-size="10" fill="#3a434f" text-anchor="middle">INSERT</text><g><rect x="316" y="127" width="156.6" height="26" rx="8" fill="#ffffff" stroke="#4263eb" stroke-width="1.2"/><text x="394.3" y="144.5" font-size="12" font-weight="700" fill="#2b3a8c" text-anchor="middle">AWS · VPC (us-east-1)</text></g><g><rect x="296" y="711" width="328.2" height="26" rx="8" fill="#ffffff" stroke="#7048e8" stroke-width="1.2"/><text x="460.1" y="728.5" font-size="12" font-weight="700" fill="#4a2fb0" text-anchor="middle">Usage analytics · CloudFront logs (off-request)</text></g><g><rect x="40" y="46" width="170" height="50" rx="10" fill="#f1f3f5" stroke="#adb5bd" stroke-width="1.6" filter="url(#sh)"/><rect x="52" y="61" width="9" height="9" rx="2.5" fill="#868e96"/><text x="68" y="70" font-size="13.5" font-weight="700" fill="#343a40">Internet</text><text x="54" y="87" font-size="11" fill="#5b6470">visitors · crawlers</text></g><g><clipPath id="nc0"><rect x="560" y="40" width="310" height="62" rx="10"/></clipPath><rect x="560" y="40" width="310" height="62" rx="10" fill="#fbeaea" stroke="#7d1c1c" stroke-width="1.6" filter="url(#sh)"/><rect x="560" y="40" width="310" height="6" fill="#7d1c1c" clip-path="url(#nc0)"/><rect x="572" y="55" width="9" height="9" rx="2.5" fill="#7d1c1c"/><text x="588" y="64" font-size="13.5" font-weight="700" fill="#5e1414">CloudFront + AWS WAF</text><text x="574" y="81" font-size="11" fill="#5b6470">rate-limit · managed rules · #461</text></g><g><clipPath id="nc1"><rect x="40" y="246" width="220" height="56" rx="10"/></clipPath><rect x="40" y="246" width="220" height="56" rx="10" fill="#f0ebff" stroke="#7048e8" stroke-width="1.6" filter="url(#sh)"/><rect x="40" y="246" width="220" height="6" fill="#7048e8" clip-path="url(#nc1)"/><rect x="52" y="261" width="9" height="9" rx="2.5" fill="#7048e8"/><text x="68" y="270" font-size="13.5" font-weight="700" fill="#4a2fb0">Secrets Manager</text><text x="54" y="287" font-size="11" fill="#5b6470">env injected at task start</text></g><g><rect x="40" y="338" width="220" height="54" rx="10" fill="#f1f3f5" stroke="#adb5bd" stroke-width="1.6" filter="url(#sh)"/><rect x="52" y="353" width="9" height="9" rx="2.5" fill="#868e96"/><text x="68" y="362" font-size="13.5" font-weight="700" fill="#343a40">WCM SAML IdP</text><text x="54" y="379" font-size="11" fill="#5b6470">login-proxy</text></g><g><rect x="40" y="416" width="220" height="54" rx="10" fill="#f1f3f5" stroke="#adb5bd" stroke-width="1.6" filter="url(#sh)"/><rect x="52" y="431" width="9" height="9" rx="2.5" fill="#868e96"/><text x="68" y="440" font-size="13.5" font-weight="700" fill="#343a40">Enterprise Directory</text><text x="54" y="457" font-size="11" fill="#5b6470">LDAPS · authz re-check</text></g><g><clipPath id="nc2"><rect x="560" y="176" width="310" height="56" rx="10"/></clipPath><rect x="560" y="176" width="310" height="56" rx="10" fill="#e7ecff" stroke="#4263eb" stroke-width="1.6" filter="url(#sh)"/><rect x="560" y="176" width="310" height="6" fill="#0ca678" clip-path="url(#nc2)"/><rect x="572" y="191" width="9" height="9" rx="2.5" fill="#4263eb"/><text x="588" y="200" font-size="13.5" font-weight="700" fill="#2b3a8c">Public ALB · sps-public</text><text x="574" y="217" font-size="11" fill="#5b6470">X-Origin-Verify gate</text></g><g><clipPath id="nc3"><rect x="330" y="286" width="180" height="60" rx="10"/></clipPath><rect x="330" y="286" width="180" height="60" rx="10" fill="#e3faf3" stroke="#0ca678" stroke-width="1.6" filter="url(#sh)"/><rect x="330" y="286" width="180" height="6" fill="#0ca678" clip-path="url(#nc3)"/><rect x="342" y="301" width="9" height="9" rx="2.5" fill="#0ca678"/><text x="358" y="310" font-size="13.5" font-weight="700" fill="#0b6e4f">Migration task</text><text x="344" y="327" font-size="11" fill="#5b6470">prisma migrate deploy</text></g><g><clipPath id="nc4"><rect x="560" y="286" width="310" height="64" rx="10"/></clipPath><rect x="560" y="286" width="310" height="64" rx="10" fill="#e3faf3" stroke="#0ca678" stroke-width="1.6" filter="url(#sh)"/><rect x="560" y="286" width="310" height="6" fill="#0ca678" clip-path="url(#nc4)"/><rect x="572" y="301" width="9" height="9" rx="2.5" fill="#0ca678"/><text x="588" y="310" font-size="13.5" font-weight="700" fill="#0b6e4f">ECS Fargate · sps-app</text><text x="574" y="327" font-size="11" fill="#5b6470">Next.js (Node 22) + OTel sidecar</text></g><g><clipPath id="nc5"><rect x="920" y="286" width="200" height="56" rx="10"/></clipPath><rect x="920" y="286" width="200" height="56" rx="10" fill="#e7ecff" stroke="#4263eb" stroke-width="1.6" filter="url(#sh)"/><rect x="920" y="286" width="200" height="6" fill="#0ca678" clip-path="url(#nc5)"/><rect x="932" y="301" width="9" height="9" rx="2.5" fill="#4263eb"/><text x="948" y="310" font-size="13.5" font-weight="700" fill="#2b3a8c">Internal ALB</text><text x="934" y="327" font-size="11" fill="#5b6470">POST /api/revalidate</text></g><g><clipPath id="nc6"><rect x="404" y="430" width="212" height="64" rx="10"/></clipPath><rect x="404" y="430" width="212" height="64" rx="10" fill="#fff4d6" stroke="#f08c00" stroke-width="1.6" filter="url(#sh)"/><rect x="404" y="430" width="212" height="6" fill="#f08c00" clip-path="url(#nc6)"/><rect x="416" y="445" width="9" height="9" rx="2.5" fill="#f08c00"/><text x="432" y="454" font-size="13.5" font-weight="700" fill="#8a5a00">Aurora MySQL</text><text x="418" y="471" font-size="11" fill="#5b6470">Serverless v2 · writer+reader</text></g><g><clipPath id="nc7"><rect x="640" y="430" width="186" height="64" rx="10"/></clipPath><rect x="640" y="430" width="186" height="64" rx="10" fill="#fff4d6" stroke="#f08c00" stroke-width="1.6" filter="url(#sh)"/><rect x="640" y="430" width="186" height="6" fill="#f08c00" clip-path="url(#nc7)"/><rect x="652" y="445" width="9" height="9" rx="2.5" fill="#f08c00"/><text x="668" y="454" font-size="13.5" font-weight="700" fill="#8a5a00">OpenSearch</text><text x="654" y="471" font-size="11" fill="#5b6470">alias: scholars</text></g><g><clipPath id="nc8"><rect x="852" y="430" width="236" height="64" rx="10"/></clipPath><rect x="852" y="430" width="236" height="64" rx="10" fill="#fff4d6" stroke="#f08c00" stroke-width="1.6" filter="url(#sh)"/><rect x="852" y="430" width="236" height="6" fill="#f08c00" clip-path="url(#nc8)"/><rect x="864" y="445" width="9" height="9" rx="2.5" fill="#f08c00"/><text x="880" y="454" font-size="13.5" font-weight="700" fill="#8a5a00">scholars_audit DB</text><text x="866" y="471" font-size="11" fill="#5b6470">append-only B03 audit</text></g><g><clipPath id="nc9"><rect x="560" y="520" width="310" height="60" rx="10"/></clipPath><rect x="560" y="520" width="310" height="60" rx="10" fill="#e3faf3" stroke="#0ca678" stroke-width="1.6" filter="url(#sh)"/><rect x="560" y="520" width="310" height="6" fill="#2f9e44" clip-path="url(#nc9)"/><rect x="572" y="535" width="9" height="9" rx="2.5" fill="#0ca678"/><text x="588" y="544" font-size="13.5" font-weight="700" fill="#0b6e4f">ECS Fargate · sps-etl</text><text x="574" y="561" font-size="11" fill="#5b6470">npm run etl:&lt;source&gt;</text></g><g><rect x="404" y="636" width="200" height="60" rx="10" fill="#f0ebff" stroke="#7048e8" stroke-width="1.6" filter="url(#sh)"/><rect x="416" y="651" width="9" height="9" rx="2.5" fill="#7048e8"/><text x="432" y="660" font-size="13.5" font-weight="700" fill="#4a2fb0">X-Ray + New Relic</text><text x="418" y="677" font-size="11" fill="#5b6470">OTLP traces (sidecar)</text></g><g><clipPath id="nc10"><rect x="760" y="636" width="220" height="60" rx="10"/></clipPath><rect x="760" y="636" width="220" height="60" rx="10" fill="#f0ebff" stroke="#7048e8" stroke-width="1.6" filter="url(#sh)"/><rect x="760" y="636" width="220" height="6" fill="#1098ad" clip-path="url(#nc10)"/><rect x="772" y="651" width="9" height="9" rx="2.5" fill="#7048e8"/><text x="788" y="660" font-size="13.5" font-weight="700" fill="#4a2fb0">Observability</text><text x="774" y="677" font-size="11" fill="#5b6470">alarms-&gt;SNS-&gt;Teams</text><text x="774" y="692" font-size="11" fill="#5b6470">sps-reliability dashboard</text></g><g><clipPath id="nc11"><rect x="1180" y="198" width="180" height="52" rx="10"/></clipPath><rect x="1180" y="198" width="180" height="52" rx="10" fill="#f0ebff" stroke="#7048e8" stroke-width="1.6" filter="url(#sh)"/><rect x="1180" y="198" width="180" height="6" fill="#2f9e44" clip-path="url(#nc11)"/><rect x="1192" y="213" width="9" height="9" rx="2.5" fill="#7048e8"/><text x="1208" y="222" font-size="13.5" font-weight="700" fill="#4a2fb0">EventBridge</text><text x="1194" y="239" font-size="11" fill="#5b6470">cron schedules</text></g><g><clipPath id="nc12"><rect x="1180" y="282" width="180" height="60" rx="10"/></clipPath><rect x="1180" y="282" width="180" height="60" rx="10" fill="#f0ebff" stroke="#7048e8" stroke-width="1.6" filter="url(#sh)"/><rect x="1180" y="282" width="180" height="6" fill="#2f9e44" clip-path="url(#nc12)"/><rect x="1192" y="297" width="9" height="9" rx="2.5" fill="#7048e8"/><text x="1208" y="306" font-size="13.5" font-weight="700" fill="#4a2fb0">Step Functions</text><text x="1194" y="323" font-size="11" fill="#5b6470">nightly/weekly/annual</text></g><g><clipPath id="nc13"><rect x="1180" y="430" width="180" height="62" rx="10"/></clipPath><rect x="1180" y="430" width="180" height="62" rx="10" fill="#f1f3f5" stroke="#adb5bd" stroke-width="1.6" filter="url(#sh)"/><rect x="1180" y="430" width="180" height="6" fill="#868e96" clip-path="url(#nc13)"/><rect x="1192" y="445" width="9" height="9" rx="2.5" fill="#868e96"/><text x="1208" y="454" font-size="13.5" font-weight="700" fill="#343a40">DR backup vault</text><text x="1194" y="471" font-size="11" fill="#5b6470">us-west-2 · cross-region</text></g><g><clipPath id="nc14"><rect x="300" y="748" width="250" height="62" rx="10"/></clipPath><rect x="300" y="748" width="250" height="62" rx="10" fill="#fff4d6" stroke="#f08c00" stroke-width="1.6" filter="url(#sh)"/><rect x="300" y="748" width="250" height="6" fill="#7d1c1c" clip-path="url(#nc14)"/><rect x="312" y="763" width="9" height="9" rx="2.5" fill="#f08c00"/><text x="328" y="772" font-size="13.5" font-weight="700" fill="#8a5a00">CloudFront access logs</text><text x="314" y="789" font-size="11" fill="#5b6470">S3 · cf/&lt;env&gt;/ · 90-day TTL</text></g><g><clipPath id="nc15"><rect x="620" y="748" width="264" height="62" rx="10"/></clipPath><rect x="620" y="748" width="264" height="62" rx="10" fill="#e3faf3" stroke="#0ca678" stroke-width="1.6" filter="url(#sh)"/><rect x="620" y="748" width="264" height="6" fill="#ae3ec9" clip-path="url(#nc15)"/><rect x="632" y="763" width="9" height="9" rx="2.5" fill="#0ca678"/><text x="648" y="772" font-size="13.5" font-weight="700" fill="#0b6e4f">Usage rollup Lambda</text><text x="634" y="789" font-size="11" fill="#5b6470">sps-cf-usage-rollup</text><text x="634" y="804" font-size="11" fill="#5b6470">EventBridge -&gt; Athena INSERT</text><rect x="818.7" y="758" width="55.300000000000004" height="17" rx="8.5" fill="#e7f6ef"/><text x="846.35" y="770" font-size="10" font-weight="700" fill="#157a52" text-anchor="middle">nightly</text></g><g><clipPath id="nc16"><rect x="954" y="748" width="286" height="62" rx="10"/></clipPath><rect x="954" y="748" width="286" height="62" rx="10" fill="#fff4d6" stroke="#f08c00" stroke-width="1.6" filter="url(#sh)"/><rect x="954" y="748" width="286" height="6" fill="#ae3ec9" clip-path="url(#nc16)"/><rect x="966" y="763" width="9" height="9" rx="2.5" fill="#f08c00"/><text x="982" y="772" font-size="13.5" font-weight="700" fill="#8a5a00">daily_usage (durable S3)</text><text x="968" y="789" font-size="11" fill="#5b6470">Glue + Athena · aggregates only</text></g></svg>