<svg xmlns="http://www.w3.org/2000/svg" viewBox="0 0 1400 720" width="1400" height="720" font-family="Inter,-apple-system,Segoe UI,Helvetica,Arial,sans-serif"><rect width="100%" height="100%" fill="#fbfcfe"/><defs><filter id="sh" x="-25%" y="-25%" width="150%" height="150%"><feDropShadow dx="0" dy="1.4" stdDeviation="2.4" flood-color="#0b1f3a" flood-opacity="0.14"/></filter><marker id="mGray" viewBox="0 0 10 10" refX="9" refY="5" markerWidth="9" markerHeight="9" markerUnits="userSpaceOnUse" orient="auto-start-reverse"><path d="M0.5,0.8 L9.4,5 L0.5,9.2 L3,5 Z" fill="#868e96"/></marker><marker id="mMaroon" viewBox="0 0 10 10" refX="9" refY="5" markerWidth="9" markerHeight="9" markerUnits="userSpaceOnUse" orient="auto-start-reverse"><path d="M0.5,0.8 L9.4,5 L0.5,9.2 L3,5 Z" fill="#7d1c1c"/></marker><marker id="mRed" viewBox="0 0 10 10" refX="9" refY="5" markerWidth="9" markerHeight="9" markerUnits="userSpaceOnUse" orient="auto-start-reverse"><path d="M0.5,0.8 L9.4,5 L0.5,9.2 L3,5 Z" fill="#e03131"/></marker><marker id="mGreen" viewBox="0 0 10 10" refX="9" refY="5" markerWidth="9" markerHeight="9" markerUnits="userSpaceOnUse" orient="auto-start-reverse"><path d="M0.5,0.8 L9.4,5 L0.5,9.2 L3,5 Z" fill="#2f9e44"/></marker><marker id="mIndigo" viewBox="0 0 10 10" refX="9" refY="5" markerWidth="9" markerHeight="9" markerUnits="userSpaceOnUse" orient="auto-start-reverse"><path d="M0.5,0.8 L9.4,5 L0.5,9.2 L3,5 Z" fill="#4263eb"/></marker><marker id="mViolet" viewBox="0 0 10 10" refX="9" refY="5" markerWidth="9" markerHeight="9" markerUnits="userSpaceOnUse" orient="auto-start-reverse"><path d="M0.5,0.8 L9.4,5 L0.5,9.2 L3,5 Z" fill="#7048e8"/></marker><marker id="mAmber" viewBox="0 0 10 10" refX="9" refY="5" markerWidth="9" markerHeight="9" markerUnits="userSpaceOnUse" orient="auto-start-reverse"><path d="M0.5,0.8 L9.4,5 L0.5,9.2 L3,5 Z" fill="#f08c00"/></marker><marker id="mTeal" viewBox="0 0 10 10" refX="9" refY="5" markerWidth="9" markerHeight="9" markerUnits="userSpaceOnUse" orient="auto-start-reverse"><path d="M0.5,0.8 L9.4,5 L0.5,9.2 L3,5 Z" fill="#0ca678"/></marker></defs><rect x="40" y="150" width="1010" height="528" rx="14" fill="#e7ecff" fill-opacity="0.05" stroke="#4263eb" stroke-width="1.4"/><rect x="70" y="230" width="950" height="108" rx="14" fill="#e7ecff" fill-opacity="0.12" stroke="#4263eb" stroke-width="1.4"/><rect x="70" y="372" width="950" height="296" rx="14" fill="#e7ecff" fill-opacity="0.12" stroke="#4263eb" stroke-width="1.4"/><rect x="1078" y="150" width="306" height="478" rx="14" fill="#f1f3f5" fill-opacity="0.12" stroke="#adb5bd" stroke-width="1.4"/><path d="M200,67 C236,67 264,67 300,67" fill="none" stroke="#7d1c1c" stroke-width="1.8" stroke-linecap="round" marker-end="url(#mMaroon)"/><path d="M450,98 L450,128 L235,206 L235,262" fill="none" stroke="#7d1c1c" stroke-width="1.8" stroke-linecap="round" marker-end="url(#mMaroon)"/><path d="M235,318 C235,354 231,366 231,402" fill="none" stroke="#4263eb" stroke-width="1.8" stroke-linecap="round" marker-end="url(#mIndigo)"/><path d="M330,419.4 C366,419.4 374,419.4 410,419.4" fill="none" stroke="#4263eb" stroke-width="1.8" stroke-linecap="round" marker-end="url(#mIndigo)"/><path d="M330,530.6 C366,530.6 374,530.6 410,530.6" fill="none" stroke="#4263eb" stroke-width="1.8" stroke-linecap="round" marker-end="url(#mIndigo)"/><path d="M330,442.6 C366,442.6 374,507.4 410,507.4" fill="none" stroke="#4263eb" stroke-width="1.8" stroke-linecap="round" marker-end="url(#mIndigo)"/><path d="M330,507.4 C366,507.4 374,442.6 410,442.6" fill="none" stroke="#4263eb" stroke-width="1.8" stroke-linecap="round" marker-end="url(#mIndigo)"/><path d="M268.4,548 C268.4,601.1168366527978 356.88316334720224,614 410,614" fill="none" stroke="#7048e8" stroke-width="1.8" stroke-linecap="round" marker-end="url(#mViolet)"/><path d="M180.4,548 C180.4,584 220,542 220,578" fill="none" stroke="#2f9e44" stroke-width="1.8" stroke-linecap="round" marker-end="url(#mGreen)"/><path d="M154,402 L154,348 L488,348 L480,318" fill="none" stroke="#868e96" stroke-width="1.8" stroke-linecap="round" marker-end="url(#mGray)"/><path d="M530,262 C530,226 545,208 545,172" fill="none" stroke="#868e96" stroke-width="1.8" stroke-linecap="round" marker-end="url(#mGray)"/><path d="M545,128 C545,32.32518408692913 825,195.67481591307086 825,100" fill="none" stroke="#868e96" stroke-width="1.8" stroke-linecap="round" stroke-dasharray="6 5" marker-end="url(#mGray)"/><path d="M1191.1,288 C1191.1,324 1231,276 1231,312" fill="none" stroke="#0ca678" stroke-width="1.8" stroke-linecap="round" marker-end="url(#mTeal)"/><path d="M1098,441.6 L1040,420 L660,432 L620,431" fill="none" stroke="#7048e8" stroke-width="1.8" stroke-linecap="round" stroke-dasharray="6 5" marker-end="url(#mViolet)"/><rect x="229.375" y="57.5" width="41.25" height="18" rx="9" fill="#ffffff" stroke="#7d1c1c" stroke-opacity="0.45"/><text x="250" y="70.4" font-size="10" fill="#3a434f" text-anchor="middle">HTTPS</text><rect x="400.125" y="118.5" width="99.75" height="18" rx="9" fill="#ffffff" stroke="#7d1c1c" stroke-opacity="0.45"/><text x="450" y="131.4" font-size="10" fill="#3a434f" text-anchor="middle">X-Origin-Verify</text><rect x="355.225" y="404.5" width="29.549999999999997" height="18" rx="9" fill="#ffffff" stroke="#4263eb" stroke-opacity="0.45"/><text x="370" y="417.4" font-size="10" fill="#3a434f" text-anchor="middle">app</text><rect x="355.225" y="526.5" width="29.549999999999997" height="18" rx="9" fill="#ffffff" stroke="#4263eb" stroke-opacity="0.45"/><text x="370" y="539.4" font-size="10" fill="#3a434f" text-anchor="middle">etl</text><rect x="320.3" y="574.5" width="35.4" height="18" rx="9" fill="#ffffff" stroke="#7048e8" stroke-opacity="0.45"/><text x="338" y="587.4" font-size="10" fill="#3a434f" text-anchor="middle">:443</text><rect x="185.42499999999998" y="553.5" width="29.549999999999997" height="18" rx="9" fill="#ffffff" stroke="#2f9e44" stroke-opacity="0.45"/><text x="200.2" y="566.4" font-size="10" fill="#3a434f" text-anchor="middle">:80</text><rect x="381.45" y="338.5" width="47.099999999999994" height="18" rx="9" fill="#ffffff" stroke="#868e96" stroke-opacity="0.45"/><text x="405" y="351.4" font-size="10" fill="#3a434f" text-anchor="middle">egress</text><rect x="646.825" y="104.49999999999999" width="76.35" height="18" rx="9" fill="#ffffff" stroke="#868e96" stroke-opacity="0.45"/><text x="685" y="117.39999999999999" font-size="10" fill="#3a434f" text-anchor="middle">to internet</text><rect x="1172.875" y="290.5" width="76.35" height="18" rx="9" fill="#ffffff" stroke="#0ca678" stroke-opacity="0.45"/><text x="1211.05" y="303.4" font-size="10" fill="#3a434f" text-anchor="middle">TGW ✓ reads</text><rect x="771.725" y="400.5" width="146.54999999999998" height="18" rx="9" fill="#ffffff" stroke="#7048e8" stroke-opacity="0.45"/><text x="845" y="413.4" font-size="10" fill="#3a434f" text-anchor="middle">per-env SG-ref → writes</text><g><rect x="56" y="137" width="407.4" height="26" rx="8" fill="#ffffff" stroke="#4263eb" stroke-width="1.2"/><text x="259.7" y="154.5" font-size="12" font-weight="700" fill="#2b3a8c" text-anchor="middle">VPC   10.x.0.0/16   ·   2 AZs (us-east-1a / 1b)   ·   1 NAT</text></g><g><rect x="86" y="217" width="196.2" height="26" rx="8" fill="#ffffff" stroke="#4263eb" stroke-width="1.2"/><text x="184.1" y="234.5" font-size="12" font-weight="700" fill="#2b3a8c" text-anchor="middle">Public subnets — /24 per AZ</text></g><g><rect x="86" y="359" width="282" height="26" rx="8" fill="#ffffff" stroke="#4263eb" stroke-width="1.2"/><text x="227" y="376.5" font-size="12" font-weight="700" fill="#2b3a8c" text-anchor="middle">Private-with-egress subnets · /22 per AZ</text></g><g><rect x="1094" y="137" width="229.2" height="26" rx="8" fill="#ffffff" stroke="#adb5bd" stroke-width="1.2"/><text x="1208.6" y="154.5" font-size="12" font-weight="700" fill="#343a40" text-anchor="middle">ETL connectivity → WCM / on-prem</text></g><g><rect x="40" y="42" width="160" height="50" rx="10" fill="#f1f3f5" stroke="#adb5bd" stroke-width="1.6" filter="url(#sh)"/><rect x="52" y="57" width="9" height="9" rx="2.5" fill="#868e96"/><text x="68" y="66" font-size="13.5" font-weight="700" fill="#343a40">Internet</text><text x="54" y="83" font-size="11" fill="#5b6470">public</text></g><g><rect x="300" y="36" width="300" height="62" rx="10" fill="#fbeaea" stroke="#7d1c1c" stroke-width="1.6" filter="url(#sh)"/><rect x="312" y="51" width="9" height="9" rx="2.5" fill="#7d1c1c"/><text x="328" y="60" font-size="13.5" font-weight="700" fill="#5e1414">CloudFront + AWS WAF</text><text x="314" y="77" font-size="11" fill="#5b6470">rate-limit · managed rules</text><text x="314" y="92" font-size="11" fill="#5b6470">WCM-only gate (#461)</text></g><g><rect x="660" y="54" width="330" height="46" rx="10" fill="#f1f3f5" stroke="#adb5bd" stroke-width="1.6" filter="url(#sh)"/><rect x="672" y="69" width="9" height="9" rx="2.5" fill="#868e96"/><text x="688" y="78" font-size="13.5" font-weight="700" fill="#343a40">Outbound internet</text><text x="674" y="95" font-size="11" fill="#5b6470">via NAT: X-Ray · NIH · NSF · MeSH</text></g><g><rect x="470" y="128" width="150" height="44" rx="10" fill="#e7ecff" stroke="#4263eb" stroke-width="1.6" filter="url(#sh)"/><rect x="482" y="143" width="9" height="9" rx="2.5" fill="#4263eb"/><text x="498" y="152" font-size="13.5" font-weight="700" fill="#2b3a8c">Internet gateway</text></g><g><rect x="110" y="262" width="250" height="56" rx="10" fill="#e7ecff" stroke="#4263eb" stroke-width="1.6" filter="url(#sh)"/><rect x="122" y="277" width="9" height="9" rx="2.5" fill="#4263eb"/><text x="138" y="286" font-size="13.5" font-weight="700" fill="#2b3a8c">Public ALB</text><text x="124" y="303" font-size="11" fill="#5b6470">internet-facing · SG: alb</text></g><g><rect x="430" y="262" width="200" height="56" rx="10" fill="#e7ecff" stroke="#4263eb" stroke-width="1.6" filter="url(#sh)"/><rect x="442" y="277" width="9" height="9" rx="2.5" fill="#4263eb"/><text x="458" y="286" font-size="13.5" font-weight="700" fill="#2b3a8c">NAT gateway</text><text x="444" y="303" font-size="11" fill="#5b6470">egress only</text></g><g><rect x="110" y="402" width="220" height="58" rx="10" fill="#e3faf3" stroke="#0ca678" stroke-width="1.6" filter="url(#sh)"/><rect x="122" y="417" width="9" height="9" rx="2.5" fill="#0ca678"/><text x="138" y="426" font-size="13.5" font-weight="700" fill="#0b6e4f">ECS app tasks</text><text x="124" y="443" font-size="11" fill="#5b6470">SG: app</text></g><g><rect x="110" y="490" width="220" height="58" rx="10" fill="#e3faf3" stroke="#0ca678" stroke-width="1.6" filter="url(#sh)"/><rect x="122" y="505" width="9" height="9" rx="2.5" fill="#0ca678"/><text x="138" y="514" font-size="13.5" font-weight="700" fill="#0b6e4f">ECS ETL tasks</text><text x="124" y="531" font-size="11" fill="#5b6470">SG: etl</text><rect x="252.89999999999998" y="500" width="67.1" height="17" rx="8.5" fill="#e0e7ff"/><text x="286.45" y="512" font-size="10" font-weight="700" fill="#3730a3" text-anchor="middle">relocates</text></g><g><rect x="110" y="578" width="220" height="56" rx="10" fill="#e7ecff" stroke="#4263eb" stroke-width="1.6" filter="url(#sh)"/><rect x="122" y="593" width="9" height="9" rx="2.5" fill="#4263eb"/><text x="138" y="602" font-size="13.5" font-weight="700" fill="#2b3a8c">Internal ALB</text><text x="124" y="619" font-size="11" fill="#5b6470">SG: alb · /api/revalidate</text></g><g><rect x="410" y="402" width="210" height="58" rx="10" fill="#fff4d6" stroke="#f08c00" stroke-width="1.6" filter="url(#sh)"/><rect x="422" y="417" width="9" height="9" rx="2.5" fill="#f08c00"/><text x="438" y="426" font-size="13.5" font-weight="700" fill="#8a5a00">Aurora MySQL</text><text x="424" y="443" font-size="11" fill="#5b6470">SG: aurora</text></g><g><rect x="410" y="490" width="210" height="58" rx="10" fill="#fff4d6" stroke="#f08c00" stroke-width="1.6" filter="url(#sh)"/><rect x="422" y="505" width="9" height="9" rx="2.5" fill="#f08c00"/><text x="438" y="514" font-size="13.5" font-weight="700" fill="#8a5a00">OpenSearch</text><text x="424" y="531" font-size="11" fill="#5b6470">SG: opensearch · private ENI</text></g><g><rect x="410" y="578" width="300" height="80" rx="10" fill="#f0ebff" stroke="#7048e8" stroke-width="1.6" filter="url(#sh)"/><rect x="422" y="593" width="9" height="9" rx="2.5" fill="#7048e8"/><text x="438" y="602" font-size="13.5" font-weight="700" fill="#4a2fb0">VPC endpoints</text><text x="424" y="619" font-size="11" fill="#5b6470">Secrets Mgr · :443 (from app, etl)</text><text x="424" y="634" font-size="11" fill="#5b6470">S3 gateway · ECR layers</text></g><g><rect x="1098" y="188" width="266" height="100" rx="10" fill="#ebfbee" stroke="#2f9e44" stroke-width="1.6" filter="url(#sh)"/><rect x="1110" y="203" width="9" height="9" rx="2.5" fill="#2f9e44"/><text x="1126" y="212" font-size="13.5" font-weight="700" fill="#256f33">Shared ETL VPC</text><text x="1112" y="229" font-size="11" fill="#5b6470">lts-reciter-vpc01 · TGW-attached</text><text x="1112" y="244" font-size="11" fill="#5b6470">10.46.134/.160 · both envs' ETL</text><text x="1112" y="259" font-size="11" fill="#5b6470">staging-ETL-SG · prod-ETL-SG</text><rect x="1292.8" y="198" width="61.2" height="17" rx="8.5" fill="#e0e7ff"/><text x="1323.4" y="210" font-size="10" font-weight="700" fill="#3730a3" text-anchor="middle">flag OFF</text></g><g><rect x="1098" y="312" width="266" height="64" rx="10" fill="#f1f3f5" stroke="#adb5bd" stroke-width="1.6" filter="url(#sh)"/><rect x="1110" y="327" width="9" height="9" rx="2.5" fill="#868e96"/><text x="1126" y="336" font-size="13.5" font-weight="700" fill="#343a40">On-prem + 10.46 sources</text><text x="1112" y="353" font-size="11" fill="#5b6470">ED-LDAP 10.63 · ReciterDB · ASMS</text><text x="1112" y="368" font-size="11" fill="#5b6470">COI · Jenzabar — reached via TGW</text></g><g><rect x="1098" y="400" width="266" height="104" rx="10" fill="#fff0f0" stroke="#e03131" stroke-width="1.6" stroke-dasharray="6 4" filter="url(#sh)"/><rect x="1110" y="415" width="9" height="9" rx="2.5" fill="#e03131"/><text x="1126" y="424" font-size="13.5" font-weight="700" fill="#b02525">VPC peering ×2</text><text x="1112" y="441" font-size="11" fill="#5b6470">per env: ↔ Sps-staging 10.20</text><text x="1112" y="456" font-size="11" fill="#5b6470">+ ↔ Sps-prod 10.10 · same acct</text><text x="1112" y="471" font-size="11" fill="#5b6470">datastore admits its ETL-SG only</text><rect x="1292.8" y="410" width="61.2" height="17" rx="8.5" fill="#e0e7ff"/><text x="1323.4" y="422" font-size="10" font-weight="700" fill="#3730a3" text-anchor="middle">flag OFF</text></g><g><rect x="1098" y="528" width="266" height="80" rx="10" fill="#fff0f0" stroke="#e03131" stroke-width="1.6" stroke-dasharray="6 4" filter="url(#sh)"/><rect x="1110" y="543" width="9" height="9" rx="2.5" fill="#e03131"/><text x="1126" y="552" font-size="13.5" font-weight="700" fill="#b02525">Edge / NetScaler  ✗ open</text><text x="1112" y="569" font-size="11" fill="#5b6470">NetScaler replace vs front CF?</text><text x="1112" y="584" font-size="11" fill="#5b6470">RITM0792011 · #502</text></g></svg>