<svg xmlns="http://www.w3.org/2000/svg" viewBox="0 0 1540 724" width="1540" height="724" font-family="Inter,-apple-system,Segoe UI,Helvetica,Arial,sans-serif"><rect width="100%" height="100%" fill="#fbfcfe"/><defs><filter id="sh" x="-25%" y="-25%" width="150%" height="150%"><feDropShadow dx="0" dy="1.4" stdDeviation="2.4" flood-color="#0b1f3a" flood-opacity="0.14"/></filter><marker id="mGray" viewBox="0 0 10 10" refX="9" refY="5" markerWidth="9" markerHeight="9" markerUnits="userSpaceOnUse" orient="auto-start-reverse"><path d="M0.5,0.8 L9.4,5 L0.5,9.2 L3,5 Z" fill="#868e96"/></marker><marker id="mMaroon" viewBox="0 0 10 10" refX="9" refY="5" markerWidth="9" markerHeight="9" markerUnits="userSpaceOnUse" orient="auto-start-reverse"><path d="M0.5,0.8 L9.4,5 L0.5,9.2 L3,5 Z" fill="#7d1c1c"/></marker><marker id="mRed" viewBox="0 0 10 10" refX="9" refY="5" markerWidth="9" markerHeight="9" markerUnits="userSpaceOnUse" orient="auto-start-reverse"><path d="M0.5,0.8 L9.4,5 L0.5,9.2 L3,5 Z" fill="#e03131"/></marker><marker id="mGreen" viewBox="0 0 10 10" refX="9" refY="5" markerWidth="9" markerHeight="9" markerUnits="userSpaceOnUse" orient="auto-start-reverse"><path d="M0.5,0.8 L9.4,5 L0.5,9.2 L3,5 Z" fill="#2f9e44"/></marker><marker id="mIndigo" viewBox="0 0 10 10" refX="9" refY="5" markerWidth="9" markerHeight="9" markerUnits="userSpaceOnUse" orient="auto-start-reverse"><path d="M0.5,0.8 L9.4,5 L0.5,9.2 L3,5 Z" fill="#4263eb"/></marker><marker id="mViolet" viewBox="0 0 10 10" refX="9" refY="5" markerWidth="9" markerHeight="9" markerUnits="userSpaceOnUse" orient="auto-start-reverse"><path d="M0.5,0.8 L9.4,5 L0.5,9.2 L3,5 Z" fill="#7048e8"/></marker><marker id="mAmber" viewBox="0 0 10 10" refX="9" refY="5" markerWidth="9" markerHeight="9" markerUnits="userSpaceOnUse" orient="auto-start-reverse"><path d="M0.5,0.8 L9.4,5 L0.5,9.2 L3,5 Z" fill="#f08c00"/></marker><marker id="mTeal" viewBox="0 0 10 10" refX="9" refY="5" markerWidth="9" markerHeight="9" markerUnits="userSpaceOnUse" orient="auto-start-reverse"><path d="M0.5,0.8 L9.4,5 L0.5,9.2 L3,5 Z" fill="#0ca678"/></marker></defs><rect x="26" y="118" width="640" height="344" rx="14" fill="#f1f3f5" fill-opacity="0.16" stroke="#adb5bd" stroke-width="1.4"/><rect x="26" y="484" width="640" height="210" rx="14" fill="#f1f3f5" fill-opacity="0.16" stroke="#adb5bd" stroke-width="1.4"/><rect x="706" y="136" width="384" height="436" rx="14" fill="#fbeaea" fill-opacity="0.16" stroke="#7d1c1c" stroke-width="1.4"/><rect x="1138" y="136" width="372" height="436" rx="14" fill="#e7ecff" fill-opacity="0.16" stroke="#4263eb" stroke-width="1.4"/><path d="M666,290 C708.3941144971799,290 695.6058855028201,188.2 738,188.2" fill="none" stroke="#0ca678" stroke-width="1.8" stroke-linecap="round" marker-end="url(#mTeal)"/><path d="M666,589 C796.8707365939383,589 607.1292634060617,210.88 738,210.88" fill="none" stroke="#0ca678" stroke-width="1.8" stroke-linecap="round" marker-end="url(#mTeal)"/><path d="M190,150 L190,106 L690,106 L690,422 L738,422.4" fill="none" stroke="#7048e8" stroke-width="1.8" stroke-linecap="round" stroke-dasharray="6 5" marker-end="url(#mViolet)"/><path d="M40,540 L18,540 L18,286 L40,285.6" fill="none" stroke="#868e96" stroke-width="1.5" stroke-linecap="round" stroke-dasharray="6 5" marker-end="url(#mGray)"/><path d="M834,226 C834,262 815,248 815,284" fill="none" stroke="#0ca678" stroke-width="1.8" stroke-linecap="round" marker-end="url(#mTeal)"/><path d="M968.4,226 C968.4,262 981,248 981,284" fill="none" stroke="#0ca678" stroke-width="1.8" stroke-linecap="round" marker-end="url(#mTeal)"/><path d="M815,344 C815,380 827.6,364 827.6,400" fill="none" stroke="#868e96" stroke-width="1.8" stroke-linecap="round" marker-end="url(#mGray)"/><path d="M981,344 C981,380 968.4,364 968.4,400" fill="none" stroke="#868e96" stroke-width="1.8" stroke-linecap="round" marker-end="url(#mGray)"/><path d="M898,498 C898,462 898,492 898,456" fill="none" stroke="#7048e8" stroke-width="1.8" stroke-linecap="round" marker-end="url(#mViolet)"/><path d="M1090,231.92000000000002 C1126,231.92000000000002 1126,206 1162,206" fill="none" stroke="#7d1c1c" stroke-width="1.8" stroke-linecap="round" marker-end="url(#mMaroon)"/><path d="M1090,319.12 C1126,319.12 1126,295 1162,295" fill="none" stroke="#7d1c1c" stroke-width="1.8" stroke-linecap="round" marker-end="url(#mMaroon)"/><path d="M1162,388 C1126,388 1126,449.92 1090,449.92" fill="none" stroke="#4263eb" stroke-width="1.8" stroke-linecap="round" marker-end="url(#mIndigo)"/><path d="M1325,468 C1325,432 1325,452 1325,416" fill="none" stroke="#868e96" stroke-width="1.8" stroke-linecap="round" marker-end="url(#mGray)"/><rect x="678.45" y="229.6" width="47.099999999999994" height="18" rx="9" fill="#ffffff" stroke="#0ca678" stroke-opacity="0.45"/><text x="702" y="242.5" font-size="10" fill="#3a434f" text-anchor="middle">ingest</text><rect x="323.5" y="90.5" width="129" height="18" rx="9" fill="#ffffff" stroke="#7048e8" stroke-opacity="0.45"/><text x="388" y="103.4" font-size="10" fill="#3a434f" text-anchor="middle">headshot · read-time</text><rect x="803.6" y="362.5" width="35.4" height="18" rx="9" fill="#ffffff" stroke="#868e96" stroke-opacity="0.45"/><text x="821.3000000000001" y="375.4" font-size="10" fill="#3a434f" text-anchor="middle">read</text><rect x="853.975" y="467.5" width="88.05" height="18" rx="9" fill="#ffffff" stroke="#7048e8" stroke-opacity="0.45"/><text x="898" y="480.4" font-size="10" fill="#3a434f" text-anchor="middle">merge at read</text><rect x="1081.975" y="209.46" width="88.05" height="18" rx="9" fill="#ffffff" stroke="#7d1c1c" stroke-opacity="0.45"/><text x="1126" y="222.36" font-size="10" fill="#3a434f" text-anchor="middle">HTTPS via CDN</text><rect x="1061.5" y="409.46000000000004" width="129" height="18" rx="9" fill="#ffffff" stroke="#4263eb" stroke-opacity="0.45"/><text x="1126" y="422.36" font-size="10" fill="#3a434f" text-anchor="middle">authenticated writes</text><rect x="1310.225" y="432.5" width="29.549999999999997" height="18" rx="9" fill="#ffffff" stroke="#868e96" stroke-opacity="0.45"/><text x="1325" y="445.4" font-size="10" fill="#3a434f" text-anchor="middle">SSO</text><g><rect x="42" y="105" width="136.8" height="26" rx="8" fill="#ffffff" stroke="#adb5bd" stroke-width="1.2"/><text x="110.4" y="122.5" font-size="12" font-weight="700" fill="#343a40" text-anchor="middle">WCM source systems</text></g><g><rect x="42" y="471" width="156.6" height="26" rx="8" fill="#ffffff" stroke="#adb5bd" stroke-width="1.2"/><text x="120.3" y="488.5" font-size="12" font-weight="700" fill="#343a40" text-anchor="middle">External data (HTTPS)</text></g><g><rect x="722" y="123" width="169.79999999999998" height="26" rx="8" fill="#ffffff" stroke="#7d1c1c" stroke-width="1.2"/><text x="806.9" y="140.5" font-size="12" font-weight="700" fill="#5e1414" text-anchor="middle">Scholars Profile System</text></g><g><rect x="1154" y="123" width="103.8" height="26" rx="8" fill="#ffffff" stroke="#4263eb" stroke-width="1.2"/><text x="1205.9" y="140.5" font-size="12" font-weight="700" fill="#2b3a8c" text-anchor="middle">Who it serves</text></g><g><rect x="40" y="150" width="300" height="52" rx="10" fill="#f1f3f5" stroke="#adb5bd" stroke-width="1.6" filter="url(#sh)"/><rect x="52" y="165" width="9" height="9" rx="2.5" fill="#868e96"/><text x="68" y="174" font-size="13.5" font-weight="700" fill="#343a40">Enterprise Directory</text><text x="54" y="191" font-size="11" fill="#5b6470">LDAPS · person types, appointments, headshots</text><rect x="274.7" y="160" width="55.300000000000004" height="17" rx="8.5" fill="#e7f6ef"/><text x="302.35" y="172" font-size="10" font-weight="700" fill="#157a52" text-anchor="middle">nightly</text></g><g><rect x="350" y="150" width="300" height="52" rx="10" fill="#f1f3f5" stroke="#adb5bd" stroke-width="1.6" filter="url(#sh)"/><rect x="362" y="165" width="9" height="9" rx="2.5" fill="#868e96"/><text x="378" y="174" font-size="13.5" font-weight="700" fill="#343a40">ASMS</text><text x="364" y="191" font-size="11" fill="#5b6470">MS SQL · education, degrees</text><rect x="584.7" y="160" width="55.300000000000004" height="17" rx="8.5" fill="#e7f6ef"/><text x="612.35" y="172" font-size="10" font-weight="700" fill="#157a52" text-anchor="middle">nightly</text></g><g><rect x="40" y="210" width="300" height="52" rx="10" fill="#f1f3f5" stroke="#adb5bd" stroke-width="1.6" filter="url(#sh)"/><rect x="52" y="225" width="9" height="9" rx="2.5" fill="#868e96"/><text x="68" y="234" font-size="13.5" font-weight="700" fill="#343a40">InfoEd</text><text x="54" y="251" font-size="11" fill="#5b6470">MS SQL · grants (funding)</text><rect x="274.7" y="220" width="55.300000000000004" height="17" rx="8.5" fill="#e7f6ef"/><text x="302.35" y="232" font-size="10" font-weight="700" fill="#157a52" text-anchor="middle">nightly</text></g><g><rect x="350" y="210" width="300" height="52" rx="10" fill="#f1f3f5" stroke="#adb5bd" stroke-width="1.6" filter="url(#sh)"/><rect x="362" y="225" width="9" height="9" rx="2.5" fill="#868e96"/><text x="378" y="234" font-size="13.5" font-weight="700" fill="#343a40">COI Portal</text><text x="364" y="251" font-size="11" fill="#5b6470">MySQL · disclosures</text><rect x="584.7" y="220" width="55.300000000000004" height="17" rx="8.5" fill="#e7f6ef"/><text x="612.35" y="232" font-size="10" font-weight="700" fill="#157a52" text-anchor="middle">nightly</text></g><g><rect x="40" y="270" width="300" height="52" rx="10" fill="#f1f3f5" stroke="#adb5bd" stroke-width="1.6" filter="url(#sh)"/><rect x="52" y="285" width="9" height="9" rx="2.5" fill="#868e96"/><text x="68" y="294" font-size="13.5" font-weight="700" fill="#343a40">ReciterDB</text><text x="54" y="311" font-size="11" fill="#5b6470">MariaDB · publications, MeSH, clinical trials</text><rect x="274.7" y="280" width="55.300000000000004" height="17" rx="8.5" fill="#e7f6ef"/><text x="302.35" y="292" font-size="10" font-weight="700" fill="#157a52" text-anchor="middle">nightly</text></g><g><rect x="350" y="270" width="300" height="52" rx="10" fill="#f1f3f5" stroke="#adb5bd" stroke-width="1.6" filter="url(#sh)"/><rect x="362" y="285" width="9" height="9" rx="2.5" fill="#868e96"/><text x="378" y="294" font-size="13.5" font-weight="700" fill="#343a40">OnCore (CTMS)</text><text x="364" y="311" font-size="11" fill="#5b6470">clinical-trial mgmt · investigators, status</text><rect x="549.3" y="280" width="90.7" height="17" rx="8.5" fill="#f1f3f5"/><text x="594.65" y="292" font-size="10" font-weight="700" fill="#5b6470" text-anchor="middle">manual export</text></g><g><rect x="40" y="330" width="300" height="52" rx="10" fill="#f1f3f5" stroke="#adb5bd" stroke-width="1.6" filter="url(#sh)"/><rect x="52" y="345" width="9" height="9" rx="2.5" fill="#868e96"/><text x="68" y="354" font-size="13.5" font-weight="700" fill="#343a40">ReciterAI</text><text x="54" y="371" font-size="11" fill="#5b6470">DynamoDB + S3 · topics, spotlights</text><rect x="280.6" y="340" width="49.400000000000006" height="17" rx="8.5" fill="#fbefd9"/><text x="305.3" y="352" font-size="10" font-weight="700" fill="#9a5b12" text-anchor="middle">weekly</text></g><g><rect x="350" y="330" width="300" height="52" rx="10" fill="#f1f3f5" stroke="#adb5bd" stroke-width="1.6" filter="url(#sh)"/><rect x="362" y="345" width="9" height="9" rx="2.5" fill="#868e96"/><text x="378" y="354" font-size="13.5" font-weight="700" fill="#343a40">Jenzabar</text><text x="364" y="371" font-size="11" fill="#5b6470">MS SQL · grad-school mentoring</text><rect x="584.7" y="340" width="55.300000000000004" height="17" rx="8.5" fill="#e7f6ef"/><text x="612.35" y="352" font-size="10" font-weight="700" fill="#157a52" text-anchor="middle">nightly</text></g><g><rect x="40" y="390" width="300" height="52" rx="10" fill="#f1f3f5" stroke="#adb5bd" stroke-width="1.6" filter="url(#sh)"/><rect x="52" y="405" width="9" height="9" rx="2.5" fill="#868e96"/><text x="68" y="414" font-size="13.5" font-weight="700" fill="#343a40">Human Resources</text><text x="54" y="431" font-size="11" fill="#5b6470">employer / employee mentees</text><rect x="274.7" y="400" width="55.300000000000004" height="17" rx="8.5" fill="#e0e7ff"/><text x="302.35" y="412" font-size="10" font-weight="700" fill="#3730a3" text-anchor="middle">planned</text></g><g><rect x="350" y="390" width="300" height="52" rx="10" fill="#f1f3f5" stroke="#adb5bd" stroke-width="1.6" filter="url(#sh)"/><rect x="362" y="405" width="9" height="9" rx="2.5" fill="#868e96"/><text x="378" y="414" font-size="13.5" font-weight="700" fill="#343a40">POPS directory</text><text x="364" y="431" font-size="11" fill="#5b6470">HTTPS · board certs, specialties, expertise</text><rect x="584.7" y="400" width="55.300000000000004" height="17" rx="8.5" fill="#e7f6ef"/><text x="612.35" y="412" font-size="10" font-weight="700" fill="#157a52" text-anchor="middle">nightly</text></g><g><rect x="40" y="514" width="300" height="52" rx="10" fill="#f1f3f5" stroke="#adb5bd" stroke-width="1.6" filter="url(#sh)"/><rect x="52" y="529" width="9" height="9" rx="2.5" fill="#868e96"/><text x="68" y="538" font-size="13.5" font-weight="700" fill="#343a40">ClinicalTrials.gov</text><text x="54" y="555" font-size="11" fill="#5b6470">HTTPS API v2 · NCT trial enrichment</text><rect x="280.6" y="524" width="49.400000000000006" height="17" rx="8.5" fill="#fbefd9"/><text x="305.3" y="536" font-size="10" font-weight="700" fill="#9a5b12" text-anchor="middle">weekly</text></g><g><rect x="350" y="514" width="300" height="52" rx="10" fill="#f1f3f5" stroke="#adb5bd" stroke-width="1.6" filter="url(#sh)"/><rect x="362" y="529" width="9" height="9" rx="2.5" fill="#868e96"/><text x="378" y="538" font-size="13.5" font-weight="700" fill="#343a40">NIH RePORTER</text><text x="364" y="555" font-size="11" fill="#5b6470">HTTPS · grant enrichment</text><rect x="572.9" y="524" width="67.1" height="17" rx="8.5" fill="#f1f3f5"/><text x="606.45" y="536" font-size="10" font-weight="700" fill="#5b6470" text-anchor="middle">on-demand</text></g><g><rect x="40" y="574" width="300" height="52" rx="10" fill="#f1f3f5" stroke="#adb5bd" stroke-width="1.6" filter="url(#sh)"/><rect x="52" y="589" width="9" height="9" rx="2.5" fill="#868e96"/><text x="68" y="598" font-size="13.5" font-weight="700" fill="#343a40">NSF Awards</text><text x="54" y="615" font-size="11" fill="#5b6470">HTTPS · federal awards</text><rect x="262.9" y="584" width="67.1" height="17" rx="8.5" fill="#f1f3f5"/><text x="296.45" y="596" font-size="10" font-weight="700" fill="#5b6470" text-anchor="middle">on-demand</text></g><g><rect x="350" y="574" width="300" height="52" rx="10" fill="#f1f3f5" stroke="#adb5bd" stroke-width="1.6" filter="url(#sh)"/><rect x="362" y="589" width="9" height="9" rx="2.5" fill="#868e96"/><text x="378" y="598" font-size="13.5" font-weight="700" fill="#343a40">NLM MeSH</text><text x="364" y="615" font-size="11" fill="#5b6470">HTTPS · taxonomy</text><rect x="590.6" y="584" width="49.400000000000006" height="17" rx="8.5" fill="#eceff8"/><text x="615.3" y="596" font-size="10" font-weight="700" fill="#43547e" text-anchor="middle">annual</text></g><g><rect x="40" y="634" width="300" height="52" rx="10" fill="#f1f3f5" stroke="#adb5bd" stroke-width="1.6" filter="url(#sh)"/><rect x="52" y="649" width="9" height="9" rx="2.5" fill="#868e96"/><text x="68" y="658" font-size="13.5" font-weight="700" fill="#343a40">CTL portfolio</text><text x="54" y="675" font-size="11" fill="#5b6470">HTTPS · WCM licensable technologies</text><rect x="280.6" y="644" width="49.400000000000006" height="17" rx="8.5" fill="#fbefd9"/><text x="305.3" y="656" font-size="10" font-weight="700" fill="#9a5b12" text-anchor="middle">weekly</text></g><g><rect x="738" y="172" width="320" height="54" rx="10" fill="#e3faf3" stroke="#0ca678" stroke-width="1.6" filter="url(#sh)"/><rect x="750" y="187" width="9" height="9" rx="2.5" fill="#0ca678"/><text x="766" y="196" font-size="13.5" font-weight="700" fill="#0b6e4f">ETL pipeline</text><text x="752" y="213" font-size="11" fill="#5b6470">Step Functions · nightly / weekly / annual</text></g><g><rect x="738" y="284" width="154" height="60" rx="10" fill="#fff4d6" stroke="#f08c00" stroke-width="1.6" filter="url(#sh)"/><rect x="750" y="299" width="9" height="9" rx="2.5" fill="#f08c00"/><text x="766" y="308" font-size="13.5" font-weight="700" fill="#8a5a00">Aurora MySQL</text><text x="752" y="325" font-size="11" fill="#5b6470">canonical store</text></g><g><rect x="904" y="284" width="154" height="60" rx="10" fill="#fff4d6" stroke="#f08c00" stroke-width="1.6" filter="url(#sh)"/><rect x="916" y="299" width="9" height="9" rx="2.5" fill="#f08c00"/><text x="932" y="308" font-size="13.5" font-weight="700" fill="#8a5a00">OpenSearch</text><text x="918" y="325" font-size="11" fill="#5b6470">search + autocomplete</text></g><g><rect x="738" y="400" width="320" height="56" rx="10" fill="#e3faf3" stroke="#0ca678" stroke-width="1.6" filter="url(#sh)"/><rect x="750" y="415" width="9" height="9" rx="2.5" fill="#0ca678"/><text x="766" y="424" font-size="13.5" font-weight="700" fill="#0b6e4f">Next.js application</text><text x="752" y="441" font-size="11" fill="#5b6470">public profiles + /edit</text></g><g><rect x="738" y="498" width="320" height="52" rx="10" fill="#f0ebff" stroke="#7048e8" stroke-width="1.6" filter="url(#sh)"/><rect x="750" y="513" width="9" height="9" rx="2.5" fill="#7048e8"/><text x="766" y="522" font-size="13.5" font-weight="700" fill="#4a2fb0">Manual-override layer</text><text x="752" y="539" font-size="11" fill="#5b6470">staff edits survive every rebuild</text></g><g><rect x="1162" y="172" width="326" height="68" rx="10" fill="#f1f3f5" stroke="#adb5bd" stroke-width="1.6" filter="url(#sh)"/><rect x="1174" y="187" width="9" height="9" rx="2.5" fill="#868e96"/><text x="1190" y="196" font-size="13.5" font-weight="700" fill="#343a40">Public &amp; research community</text><text x="1176" y="213" font-size="11" fill="#5b6470">~9,000 profiles · topics, depts</text><text x="1176" y="228" font-size="11" fill="#5b6470">search</text></g><g><rect x="1162" y="268" width="326" height="54" rx="10" fill="#f1f3f5" stroke="#adb5bd" stroke-width="1.6" filter="url(#sh)"/><rect x="1174" y="283" width="9" height="9" rx="2.5" fill="#868e96"/><text x="1190" y="292" font-size="13.5" font-weight="700" fill="#343a40">Search-engine crawlers</text><text x="1176" y="309" font-size="11" fill="#5b6470">sitemaps · SEO discovery</text></g><g><rect x="1162" y="360" width="326" height="56" rx="10" fill="#f1f3f5" stroke="#adb5bd" stroke-width="1.6" filter="url(#sh)"/><rect x="1174" y="375" width="9" height="9" rx="2.5" fill="#868e96"/><text x="1190" y="384" font-size="13.5" font-weight="700" fill="#343a40">WCM staff editors</text><text x="1176" y="401" font-size="11" fill="#5b6470">SAML SSO -&gt; /edit writes</text></g><g><rect x="1162" y="468" width="326" height="68" rx="10" fill="#f0ebff" stroke="#7048e8" stroke-width="1.6" filter="url(#sh)"/><rect x="1174" y="483" width="9" height="9" rx="2.5" fill="#7048e8"/><text x="1190" y="492" font-size="13.5" font-weight="700" fill="#4a2fb0">WCM SAML IdP + Directory</text><text x="1176" y="509" font-size="11" fill="#5b6470">login-proxy · authn</text><text x="1176" y="524" font-size="11" fill="#5b6470">Enterprise Directory · authz</text></g></svg>