<svg xmlns="http://www.w3.org/2000/svg" viewBox="0 0 1380 988" width="1380" height="988" font-family="Inter,-apple-system,Segoe UI,Helvetica,Arial,sans-serif"><rect width="100%" height="100%" fill="#fbfcfe"/><defs><filter id="sh" x="-25%" y="-25%" width="150%" height="150%"><feDropShadow dx="0" dy="1.4" stdDeviation="2.4" flood-color="#0b1f3a" flood-opacity="0.14"/></filter><marker id="mGray" viewBox="0 0 10 10" refX="9" refY="5" markerWidth="9" markerHeight="9" markerUnits="userSpaceOnUse" orient="auto-start-reverse"><path d="M0.5,0.8 L9.4,5 L0.5,9.2 L3,5 Z" fill="#868e96"/></marker><marker id="mMaroon" viewBox="0 0 10 10" refX="9" refY="5" markerWidth="9" markerHeight="9" markerUnits="userSpaceOnUse" orient="auto-start-reverse"><path d="M0.5,0.8 L9.4,5 L0.5,9.2 L3,5 Z" fill="#7d1c1c"/></marker><marker id="mRed" viewBox="0 0 10 10" refX="9" refY="5" markerWidth="9" markerHeight="9" markerUnits="userSpaceOnUse" orient="auto-start-reverse"><path d="M0.5,0.8 L9.4,5 L0.5,9.2 L3,5 Z" fill="#e03131"/></marker><marker id="mGreen" viewBox="0 0 10 10" refX="9" refY="5" markerWidth="9" markerHeight="9" markerUnits="userSpaceOnUse" orient="auto-start-reverse"><path d="M0.5,0.8 L9.4,5 L0.5,9.2 L3,5 Z" fill="#2f9e44"/></marker><marker id="mIndigo" viewBox="0 0 10 10" refX="9" refY="5" markerWidth="9" markerHeight="9" markerUnits="userSpaceOnUse" orient="auto-start-reverse"><path d="M0.5,0.8 L9.4,5 L0.5,9.2 L3,5 Z" fill="#4263eb"/></marker><marker id="mViolet" viewBox="0 0 10 10" refX="9" refY="5" markerWidth="9" markerHeight="9" markerUnits="userSpaceOnUse" orient="auto-start-reverse"><path d="M0.5,0.8 L9.4,5 L0.5,9.2 L3,5 Z" fill="#7048e8"/></marker><marker id="mAmber" viewBox="0 0 10 10" refX="9" refY="5" markerWidth="9" markerHeight="9" markerUnits="userSpaceOnUse" orient="auto-start-reverse"><path d="M0.5,0.8 L9.4,5 L0.5,9.2 L3,5 Z" fill="#f08c00"/></marker><marker id="mTeal" viewBox="0 0 10 10" refX="9" refY="5" markerWidth="9" markerHeight="9" markerUnits="userSpaceOnUse" orient="auto-start-reverse"><path d="M0.5,0.8 L9.4,5 L0.5,9.2 L3,5 Z" fill="#0ca678"/></marker></defs><rect x="30" y="96" width="350" height="578" rx="14" fill="#f1f3f5" fill-opacity="0.16" stroke="#adb5bd" stroke-width="1.4"/><rect x="30" y="698" width="350" height="278" rx="14" fill="#f1f3f5" fill-opacity="0.16" stroke="#adb5bd" stroke-width="1.4"/><rect x="506" y="150" width="372" height="448" rx="14" fill="#fbeaea" fill-opacity="0.16" stroke="#7d1c1c" stroke-width="1.4"/><rect x="1012" y="150" width="346" height="448" rx="14" fill="#e7ecff" fill-opacity="0.16" stroke="#4263eb" stroke-width="1.4"/><path d="M380,385 C457.87855555311745,385 458.12144444688255,217.28 536,217.28" fill="none" stroke="#0ca678" stroke-width="1.8" stroke-linecap="round" marker-end="url(#mTeal)"/><path d="M380,837 C590.5192142869624,837 325.48078571303756,237.8 536,237.8" fill="none" stroke="#0ca678" stroke-width="1.8" stroke-linecap="round" marker-end="url(#mTeal)"/><path d="M360,155 L488,155 L488,443 L536,443.2" fill="none" stroke="#7048e8" stroke-width="1.8" stroke-linecap="round" stroke-dasharray="6 5" marker-end="url(#mViolet)"/><path d="M50,335 L44,335 L44,155 L50,155" fill="none" stroke="#868e96" stroke-width="1.5" stroke-linecap="round" marker-end="url(#mGray)"/><path d="M50,635 L44,635 L44,526 L50,525.8" fill="none" stroke="#868e96" stroke-width="1.5" stroke-linecap="round" marker-end="url(#mGray)"/><path d="M50,757 L24,757 L24,504 L50,504.2" fill="none" stroke="#868e96" stroke-width="1.5" stroke-linecap="round" stroke-dasharray="6 5" marker-end="url(#mGray)"/><path d="M629.6,254 C629.6,290 611,272 611,308" fill="none" stroke="#0ca678" stroke-width="1.8" stroke-linecap="round" marker-end="url(#mTeal)"/><path d="M760.64,254 C760.64,290 773,272 773,308" fill="none" stroke="#0ca678" stroke-width="1.8" stroke-linecap="round" marker-end="url(#mTeal)"/><path d="M611,368 C611,404 623.36,382 623.36,418" fill="none" stroke="#868e96" stroke-width="1.8" stroke-linecap="round" marker-end="url(#mGray)"/><path d="M773,368 C773,404 760.64,382 760.64,418" fill="none" stroke="#868e96" stroke-width="1.8" stroke-linecap="round" marker-end="url(#mGray)"/><path d="M692,512 C692,476 692,510 692,474" fill="none" stroke="#7048e8" stroke-width="1.8" stroke-linecap="round" marker-end="url(#mViolet)"/><path d="M878,248.56 C930.5934982688925,248.56 979.4065017311075,234 1032,234" fill="none" stroke="#7d1c1c" stroke-width="1.8" stroke-linecap="round" marker-end="url(#mMaroon)"/><path d="M878,329.20000000000005 C930.3794691076571,329.20000000000005 979.6205308923429,325 1032,325" fill="none" stroke="#7d1c1c" stroke-width="1.8" stroke-linecap="round" marker-end="url(#mMaroon)"/><path d="M1032,420 C976.6744110184085,420 933.3255889815915,472.56 878,472.56" fill="none" stroke="#4263eb" stroke-width="1.8" stroke-linecap="round" marker-end="url(#mIndigo)"/><path d="M1185,496 C1185,460 1185,484 1185,448" fill="none" stroke="#868e96" stroke-width="1.8" stroke-linecap="round" marker-end="url(#mGray)"/><rect x="384.725" y="291.64000000000004" width="146.54999999999998" height="18" rx="9" fill="#ffffff" stroke="#0ca678" stroke-opacity="0.45"/><text x="458" y="304.54" font-size="10" fill="#3a434f" text-anchor="middle">ingest (20+ connectors)</text><rect x="423.5" y="290.5" width="129" height="18" rx="9" fill="#ffffff" stroke="#7048e8" stroke-opacity="0.45"/><text x="488" y="303.4" font-size="10" fill="#3a434f" text-anchor="middle">headshot · read-time</text><rect x="599.4799999999999" y="383.5" width="35.4" height="18" rx="9" fill="#ffffff" stroke="#868e96" stroke-opacity="0.45"/><text x="617.18" y="396.4" font-size="10" fill="#3a434f" text-anchor="middle">read</text><rect x="647.975" y="483.5" width="88.05" height="18" rx="9" fill="#ffffff" stroke="#7048e8" stroke-opacity="0.45"/><text x="692" y="496.4" font-size="10" fill="#3a434f" text-anchor="middle">merge at read</text><rect x="910.975" y="231.78" width="88.05" height="18" rx="9" fill="#ffffff" stroke="#7d1c1c" stroke-opacity="0.45"/><text x="955" y="244.68" font-size="10" fill="#3a434f" text-anchor="middle">HTTPS via CDN</text><rect x="890.5" y="436.78000000000003" width="129" height="18" rx="9" fill="#ffffff" stroke="#4263eb" stroke-opacity="0.45"/><text x="955" y="449.68" font-size="10" fill="#3a434f" text-anchor="middle">authenticated writes</text><rect x="1170.225" y="462.5" width="29.549999999999997" height="18" rx="9" fill="#ffffff" stroke="#868e96" stroke-opacity="0.45"/><text x="1185" y="475.4" font-size="10" fill="#3a434f" text-anchor="middle">SSO</text><g><rect x="46" y="83" width="136.8" height="26" rx="8" fill="#ffffff" stroke="#adb5bd" stroke-width="1.2"/><text x="114.4" y="100.5" font-size="12" font-weight="700" fill="#343a40" text-anchor="middle">WCM source systems</text></g><g><rect x="46" y="685" width="156.6" height="26" rx="8" fill="#ffffff" stroke="#adb5bd" stroke-width="1.2"/><text x="124.3" y="702.5" font-size="12" font-weight="700" fill="#343a40" text-anchor="middle">External data (HTTPS)</text></g><g><rect x="522" y="137" width="169.79999999999998" height="26" rx="8" fill="#ffffff" stroke="#7d1c1c" stroke-width="1.2"/><text x="606.9" y="154.5" font-size="12" font-weight="700" fill="#5e1414" text-anchor="middle">Scholars Profile System</text></g><g><rect x="1028" y="137" width="103.8" height="26" rx="8" fill="#ffffff" stroke="#4263eb" stroke-width="1.2"/><text x="1079.9" y="154.5" font-size="12" font-weight="700" fill="#2b3a8c" text-anchor="middle">Who it serves</text></g><g><rect x="50" y="128" width="310" height="54" rx="10" fill="#f1f3f5" stroke="#adb5bd" stroke-width="1.6" filter="url(#sh)"/><rect x="62" y="143" width="9" height="9" rx="2.5" fill="#868e96"/><text x="78" y="152" font-size="13.5" font-weight="700" fill="#343a40">Enterprise Directory</text><text x="64" y="169" font-size="11" fill="#5b6470">LDAPS · person types, appointments, headshots</text><rect x="294.7" y="138" width="55.300000000000004" height="17" rx="8.5" fill="#e7f6ef"/><text x="322.35" y="150" font-size="10" font-weight="700" fill="#157a52" text-anchor="middle">nightly</text></g><g><rect x="50" y="188" width="310" height="54" rx="10" fill="#f1f3f5" stroke="#adb5bd" stroke-width="1.6" filter="url(#sh)"/><rect x="62" y="203" width="9" height="9" rx="2.5" fill="#868e96"/><text x="78" y="212" font-size="13.5" font-weight="700" fill="#343a40">InfoEd</text><text x="64" y="229" font-size="11" fill="#5b6470">MS SQL · grants (funding)</text><rect x="294.7" y="198" width="55.300000000000004" height="17" rx="8.5" fill="#e7f6ef"/><text x="322.35" y="210" font-size="10" font-weight="700" fill="#157a52" text-anchor="middle">nightly</text></g><g><rect x="50" y="248" width="310" height="54" rx="10" fill="#f1f3f5" stroke="#adb5bd" stroke-width="1.6" filter="url(#sh)"/><rect x="62" y="263" width="9" height="9" rx="2.5" fill="#868e96"/><text x="78" y="272" font-size="13.5" font-weight="700" fill="#343a40">COI Portal</text><text x="64" y="289" font-size="11" fill="#5b6470">MySQL · disclosures</text><rect x="294.7" y="258" width="55.300000000000004" height="17" rx="8.5" fill="#e7f6ef"/><text x="322.35" y="270" font-size="10" font-weight="700" fill="#157a52" text-anchor="middle">nightly</text></g><g><rect x="50" y="308" width="310" height="54" rx="10" fill="#f1f3f5" stroke="#adb5bd" stroke-width="1.6" filter="url(#sh)"/><rect x="62" y="323" width="9" height="9" rx="2.5" fill="#868e96"/><text x="78" y="332" font-size="13.5" font-weight="700" fill="#343a40">ASMS</text><text x="64" y="349" font-size="11" fill="#5b6470">MS SQL · education, degrees</text><rect x="294.7" y="318" width="55.300000000000004" height="17" rx="8.5" fill="#e7f6ef"/><text x="322.35" y="330" font-size="10" font-weight="700" fill="#157a52" text-anchor="middle">nightly</text></g><g><rect x="50" y="368" width="310" height="54" rx="10" fill="#f1f3f5" stroke="#adb5bd" stroke-width="1.6" filter="url(#sh)"/><rect x="62" y="383" width="9" height="9" rx="2.5" fill="#868e96"/><text x="78" y="392" font-size="13.5" font-weight="700" fill="#343a40">Jenzabar</text><text x="64" y="409" font-size="11" fill="#5b6470">MS SQL · grad-school mentoring</text><rect x="235.7" y="378" width="114.30000000000001" height="17" rx="8.5" fill="#e0e7ff"/><text x="292.85" y="390" font-size="10" font-weight="700" fill="#3730a3" text-anchor="middle">nightly (planned)</text></g><g><rect x="50" y="428" width="310" height="54" rx="10" fill="#f1f3f5" stroke="#adb5bd" stroke-width="1.6" filter="url(#sh)"/><rect x="62" y="443" width="9" height="9" rx="2.5" fill="#868e96"/><text x="78" y="452" font-size="13.5" font-weight="700" fill="#343a40">Human Resources</text><text x="64" y="469" font-size="11" fill="#5b6470">employer / employee mentees</text><rect x="294.7" y="438" width="55.300000000000004" height="17" rx="8.5" fill="#e0e7ff"/><text x="322.35" y="450" font-size="10" font-weight="700" fill="#3730a3" text-anchor="middle">planned</text></g><g><rect x="50" y="488" width="310" height="54" rx="10" fill="#f1f3f5" stroke="#adb5bd" stroke-width="1.6" filter="url(#sh)"/><rect x="62" y="503" width="9" height="9" rx="2.5" fill="#868e96"/><text x="78" y="512" font-size="13.5" font-weight="700" fill="#343a40">ReciterDB</text><text x="64" y="529" font-size="11" fill="#5b6470">MariaDB · publications, MeSH, clinical trials</text><rect x="294.7" y="498" width="55.300000000000004" height="17" rx="8.5" fill="#e7f6ef"/><text x="322.35" y="510" font-size="10" font-weight="700" fill="#157a52" text-anchor="middle">nightly</text></g><g><rect x="50" y="548" width="310" height="54" rx="10" fill="#f1f3f5" stroke="#adb5bd" stroke-width="1.6" filter="url(#sh)"/><rect x="62" y="563" width="9" height="9" rx="2.5" fill="#868e96"/><text x="78" y="572" font-size="13.5" font-weight="700" fill="#343a40">ReciterAI</text><text x="64" y="589" font-size="11" fill="#5b6470">DynamoDB + S3 · topics, spotlights</text><rect x="300.6" y="558" width="49.400000000000006" height="17" rx="8.5" fill="#fbefd9"/><text x="325.3" y="570" font-size="10" font-weight="700" fill="#9a5b12" text-anchor="middle">weekly</text></g><g><rect x="50" y="608" width="310" height="54" rx="10" fill="#f1f3f5" stroke="#adb5bd" stroke-width="1.6" filter="url(#sh)"/><rect x="62" y="623" width="9" height="9" rx="2.5" fill="#868e96"/><text x="78" y="632" font-size="13.5" font-weight="700" fill="#343a40">OnCore (CTMS)</text><text x="64" y="649" font-size="11" fill="#5b6470">clinical-trial mgmt · investigators, status</text><rect x="259.3" y="618" width="90.7" height="17" rx="8.5" fill="#f1f3f5"/><text x="304.65" y="630" font-size="10" font-weight="700" fill="#5b6470" text-anchor="middle">manual export</text></g><g><rect x="50" y="730" width="310" height="54" rx="10" fill="#f1f3f5" stroke="#adb5bd" stroke-width="1.6" filter="url(#sh)"/><rect x="62" y="745" width="9" height="9" rx="2.5" fill="#868e96"/><text x="78" y="754" font-size="13.5" font-weight="700" fill="#343a40">ClinicalTrials.gov</text><text x="64" y="771" font-size="11" fill="#5b6470">HTTPS API v2 · NCT trial enrichment</text><rect x="300.6" y="740" width="49.400000000000006" height="17" rx="8.5" fill="#fbefd9"/><text x="325.3" y="752" font-size="10" font-weight="700" fill="#9a5b12" text-anchor="middle">weekly</text></g><g><rect x="50" y="790" width="310" height="54" rx="10" fill="#f1f3f5" stroke="#adb5bd" stroke-width="1.6" filter="url(#sh)"/><rect x="62" y="805" width="9" height="9" rx="2.5" fill="#868e96"/><text x="78" y="814" font-size="13.5" font-weight="700" fill="#343a40">NIH RePORTER</text><text x="64" y="831" font-size="11" fill="#5b6470">HTTPS · grant enrichment</text><rect x="282.9" y="800" width="67.1" height="17" rx="8.5" fill="#f1f3f5"/><text x="316.45" y="812" font-size="10" font-weight="700" fill="#5b6470" text-anchor="middle">on-demand</text></g><g><rect x="50" y="850" width="310" height="54" rx="10" fill="#f1f3f5" stroke="#adb5bd" stroke-width="1.6" filter="url(#sh)"/><rect x="62" y="865" width="9" height="9" rx="2.5" fill="#868e96"/><text x="78" y="874" font-size="13.5" font-weight="700" fill="#343a40">NSF Awards</text><text x="64" y="891" font-size="11" fill="#5b6470">HTTPS · federal awards</text><rect x="282.9" y="860" width="67.1" height="17" rx="8.5" fill="#f1f3f5"/><text x="316.45" y="872" font-size="10" font-weight="700" fill="#5b6470" text-anchor="middle">on-demand</text></g><g><rect x="50" y="910" width="310" height="54" rx="10" fill="#f1f3f5" stroke="#adb5bd" stroke-width="1.6" filter="url(#sh)"/><rect x="62" y="925" width="9" height="9" rx="2.5" fill="#868e96"/><text x="78" y="934" font-size="13.5" font-weight="700" fill="#343a40">NLM MeSH</text><text x="64" y="951" font-size="11" fill="#5b6470">HTTPS · taxonomy</text><rect x="300.6" y="920" width="49.400000000000006" height="17" rx="8.5" fill="#eceff8"/><text x="325.3" y="932" font-size="10" font-weight="700" fill="#43547e" text-anchor="middle">annual</text></g><g><rect x="536" y="200" width="312" height="54" rx="10" fill="#e3faf3" stroke="#0ca678" stroke-width="1.6" filter="url(#sh)"/><rect x="548" y="215" width="9" height="9" rx="2.5" fill="#0ca678"/><text x="564" y="224" font-size="13.5" font-weight="700" fill="#0b6e4f">ETL pipeline</text><text x="550" y="241" font-size="11" fill="#5b6470">Step Functions · nightly / weekly / annual</text></g><g><rect x="536" y="308" width="150" height="60" rx="10" fill="#fff4d6" stroke="#f08c00" stroke-width="1.6" filter="url(#sh)"/><rect x="548" y="323" width="9" height="9" rx="2.5" fill="#f08c00"/><text x="564" y="332" font-size="13.5" font-weight="700" fill="#8a5a00">Aurora MySQL</text><text x="550" y="349" font-size="11" fill="#5b6470">canonical store</text></g><g><rect x="698" y="308" width="150" height="60" rx="10" fill="#fff4d6" stroke="#f08c00" stroke-width="1.6" filter="url(#sh)"/><rect x="710" y="323" width="9" height="9" rx="2.5" fill="#f08c00"/><text x="726" y="332" font-size="13.5" font-weight="700" fill="#8a5a00">OpenSearch</text><text x="712" y="349" font-size="11" fill="#5b6470">search + autocomplete</text></g><g><rect x="536" y="418" width="312" height="56" rx="10" fill="#e3faf3" stroke="#0ca678" stroke-width="1.6" filter="url(#sh)"/><rect x="548" y="433" width="9" height="9" rx="2.5" fill="#0ca678"/><text x="564" y="442" font-size="13.5" font-weight="700" fill="#0b6e4f">Next.js application</text><text x="550" y="459" font-size="11" fill="#5b6470">public profiles + /edit</text></g><g><rect x="536" y="512" width="312" height="52" rx="10" fill="#f0ebff" stroke="#7048e8" stroke-width="1.6" filter="url(#sh)"/><rect x="548" y="527" width="9" height="9" rx="2.5" fill="#7048e8"/><text x="564" y="536" font-size="13.5" font-weight="700" fill="#4a2fb0">Manual-override layer</text><text x="550" y="553" font-size="11" fill="#5b6470">staff edits survive every rebuild</text></g><g><rect x="1032" y="200" width="306" height="68" rx="10" fill="#f1f3f5" stroke="#adb5bd" stroke-width="1.6" filter="url(#sh)"/><rect x="1044" y="215" width="9" height="9" rx="2.5" fill="#868e96"/><text x="1060" y="224" font-size="13.5" font-weight="700" fill="#343a40">Public &amp; research community</text><text x="1046" y="241" font-size="11" fill="#5b6470">~9,000 profiles · topics, depts</text><text x="1046" y="256" font-size="11" fill="#5b6470">search</text></g><g><rect x="1032" y="298" width="306" height="54" rx="10" fill="#f1f3f5" stroke="#adb5bd" stroke-width="1.6" filter="url(#sh)"/><rect x="1044" y="313" width="9" height="9" rx="2.5" fill="#868e96"/><text x="1060" y="322" font-size="13.5" font-weight="700" fill="#343a40">Search-engine crawlers</text><text x="1046" y="339" font-size="11" fill="#5b6470">sitemaps · SEO discovery</text></g><g><rect x="1032" y="392" width="306" height="56" rx="10" fill="#f1f3f5" stroke="#adb5bd" stroke-width="1.6" filter="url(#sh)"/><rect x="1044" y="407" width="9" height="9" rx="2.5" fill="#868e96"/><text x="1060" y="416" font-size="13.5" font-weight="700" fill="#343a40">WCM staff editors</text><text x="1046" y="433" font-size="11" fill="#5b6470">SAML SSO -&gt; /edit writes</text></g><g><rect x="1032" y="496" width="306" height="68" rx="10" fill="#f0ebff" stroke="#7048e8" stroke-width="1.6" filter="url(#sh)"/><rect x="1044" y="511" width="9" height="9" rx="2.5" fill="#7048e8"/><text x="1060" y="520" font-size="13.5" font-weight="700" fill="#4a2fb0">WCM SAML IdP + Directory</text><text x="1046" y="537" font-size="11" fill="#5b6470">login-proxy · authn</text><text x="1046" y="552" font-size="11" fill="#5b6470">Enterprise Directory · authz</text></g></svg>